<svg width="30" height="30" viewBox="0 0 30 30" fill="none" xmlns="http://www.w3.org/2000/svg">
<path d="M20.8528 29.1892H9.14717C8.63783 29.1885 8.14953 28.9859 7.78937 28.6257C7.42922 28.2656 7.2266 27.7773 7.22595 27.268V5.23376C7.22649 4.72434 7.42906 4.23595 7.78923 3.8757C8.1494 3.51545 8.63776 3.31278 9.14717 3.31213H20.8528C21.3622 3.31278 21.8505 3.5154 22.2106 3.87556C22.5708 4.23571 22.7734 4.72401 22.774 5.23335V27.268C22.7734 27.7773 22.5708 28.2656 22.2106 28.6257C21.8505 28.9859 21.3622 29.1885 20.8528 29.1892ZM9.14717 4.12294C8.8528 4.12337 8.57061 4.2405 8.36247 4.44865C8.15432 4.6568 8.03719 4.93898 8.03676 5.23335V27.268C8.03719 27.5623 8.15432 27.8445 8.36247 28.0527C8.57061 28.2608 8.8528 28.3779 9.14717 28.3784H20.8528C21.1472 28.3779 21.4294 28.2608 21.6375 28.0527C21.8457 27.8445 21.9628 27.5623 21.9632 27.268V5.23376C21.9628 4.93939 21.8457 4.6572 21.6375 4.44905C21.4294 4.24091 21.1472 4.12378 20.8528 4.12335L9.14717 4.12294Z" fill="black"/>
<path d="M18.3313 4.12296H11.6688C11.5613 4.12296 11.4582 4.08024 11.3822 4.00421C11.3061 3.92819 11.2634 3.82507 11.2634 3.71755V1.97431C11.2637 1.66589 11.3864 1.37019 11.6044 1.15207C11.8225 0.933955 12.1181 0.81122 12.4265 0.810791H17.5752C17.8837 0.811113 18.1794 0.933801 18.3976 1.15193C18.6157 1.37006 18.7384 1.66582 18.7387 1.97431V3.71755C18.7387 3.77096 18.7281 3.82384 18.7076 3.87316C18.6871 3.92248 18.6571 3.96726 18.6192 4.00493C18.5814 4.04261 18.5365 4.07243 18.487 4.09268C18.4376 4.11293 18.3847 4.12322 18.3313 4.12296ZM12.0738 3.31214H17.9259V1.97431C17.9258 1.8808 17.8886 1.79115 17.8224 1.72503C17.7563 1.6589 17.6667 1.62171 17.5732 1.6216H12.4245C12.331 1.62171 12.2414 1.6589 12.1752 1.72503C12.1091 1.79115 12.0719 1.8808 12.0718 1.97431L12.0738 3.31214Z" fill="black"/>
<path d="M12.6117 23.1142C12.5446 23.1141 12.4786 23.0974 12.4195 23.0656C12.3604 23.0337 12.3102 22.9877 12.2733 22.9316C12.2364 22.8756 12.214 22.8113 12.2081 22.7444C12.2023 22.6776 12.213 22.6103 12.2395 22.5487L14.3367 17.6635H11.0987C11.0212 17.6635 10.9453 17.6413 10.88 17.5994C10.8147 17.5576 10.7628 17.4979 10.7304 17.4275C10.698 17.357 10.6865 17.2787 10.6973 17.202C10.708 17.1252 10.7406 17.0531 10.791 16.9942L17.1969 9.52705C17.2594 9.45092 17.3476 9.40018 17.4448 9.38432C17.5421 9.36845 17.6418 9.38856 17.7253 9.44087C17.8088 9.49318 17.8704 9.57412 17.8986 9.66854C17.9267 9.76297 17.9195 9.86443 17.8783 9.95394L15.6174 15.167H18.9012C18.9792 15.1671 19.0555 15.1896 19.121 15.2319C19.1865 15.2742 19.2384 15.3345 19.2705 15.4056C19.3026 15.4767 19.3135 15.5555 19.3019 15.6326C19.2904 15.7098 19.2568 15.7819 19.2052 15.8404L12.9158 22.9755C12.8778 23.0189 12.8311 23.0537 12.7787 23.0777C12.7263 23.1016 12.6693 23.114 12.6117 23.1142ZM11.9809 16.8527H14.9521C15.0193 16.8527 15.0854 16.8693 15.1445 16.9012C15.2036 16.933 15.2539 16.979 15.2908 17.0351C15.3277 17.0912 15.3502 17.1555 15.3561 17.2224C15.362 17.2893 15.3512 17.3566 15.3247 17.4183L13.9868 20.537L18.0048 15.9779H15C14.9326 15.9779 14.8663 15.9611 14.8071 15.9291C14.7479 15.8972 14.6975 15.8509 14.6606 15.7946C14.6237 15.7383 14.6015 15.6736 14.5958 15.6065C14.5901 15.5394 14.6013 15.472 14.6282 15.4103L16.067 12.09L11.9809 16.8527Z" fill="black"/>
</svg>
