<svg width="30" height="30" viewBox="0 0 30 30" fill="none" xmlns="http://www.w3.org/2000/svg">
<g clip-path="url(#clip0_4_247)">
<path d="M28.4385 13.1806L26.0286 12.0802L23.9016 8.68673C23.2868 7.70313 22.2049 7.10681 21.043 7.11296H11.9815C10.9303 7.11296 9.93441 7.59862 9.29506 8.43468L6.54712 12.031L1.96721 13.2851C0.805326 13.6048 0 14.6683 0 15.8732V17.6252C0 19.1068 1.18033 20.3302 2.66188 20.3302H3.05532C3.52868 22.156 5.39138 23.2502 7.2172 22.7769C8.41597 22.4634 9.35654 21.5289 9.66391 20.3302H19.9918C20.4651 22.156 22.3278 23.2502 24.1536 22.7769C25.3524 22.4634 26.293 21.5289 26.6004 20.3302H27.3381C28.8196 20.3302 29.9999 19.1068 29.9999 17.6252V15.6273C30.0061 14.5761 29.3913 13.6171 28.4385 13.1806ZM6.35654 21.6457C5.15163 21.6457 4.17417 20.6683 4.17417 19.4634C4.17417 18.2584 5.15163 17.281 6.35654 17.281C7.56146 17.281 8.53892 18.2584 8.53892 19.4634C8.54506 20.6621 7.56761 21.6396 6.35654 21.6457ZM23.293 21.6457C22.0881 21.6457 21.1106 20.6683 21.1106 19.4634C21.1106 18.2584 22.0881 17.281 23.293 17.281C24.4979 17.281 25.4754 18.2584 25.4754 19.4634C25.4815 20.6621 24.504 21.6396 23.293 21.6457ZM27.3381 19.1007H26.6864C26.4836 17.2257 24.793 15.8732 22.918 16.0822C21.3258 16.2543 20.0717 17.5146 19.8996 19.1007H9.74998C9.54711 17.2257 7.85654 15.8732 5.98155 16.0822C4.38934 16.2543 3.13524 17.5146 2.96311 19.1007H2.65573C1.85041 19.1007 1.22336 18.4306 1.22336 17.6252V15.8732C1.21721 15.2154 1.65369 14.6437 2.28688 14.4654L7.07581 13.156C7.2049 13.1191 7.32171 13.0453 7.40162 12.9347L10.2664 9.17853C10.6783 8.64985 11.3115 8.34247 11.9815 8.34247H21.043C21.7807 8.33632 22.4754 8.71132 22.8627 9.33837L25.0881 12.8916C25.1495 12.9962 25.2479 13.0761 25.3524 13.1252L27.9221 14.2994C28.4385 14.5392 28.7704 15.0556 28.7643 15.6273V17.6252H28.7704C28.7704 18.4306 28.1434 19.1007 27.3381 19.1007Z" fill="black"/>
</g>
<defs>
<clipPath id="clip0_4_247">
<rect width="30" height="30" fill="white"/>
</clipPath>
</defs>
</svg>
