<svg width="30" height="30" viewBox="0 0 30 30" fill="none" xmlns="http://www.w3.org/2000/svg">
<path d="M15 6.09375C10.0889 6.09375 6.09375 10.0889 6.09375 15C6.09375 19.9111 10.0889 23.9062 15 23.9062C19.9111 23.9062 23.9062 19.9111 23.9062 15C23.9062 10.0889 19.9111 6.09375 15 6.09375ZM15 22.9688C10.6059 22.9688 7.03125 19.3941 7.03125 15C7.03125 10.6059 10.6059 7.03125 15 7.03125C19.3941 7.03125 22.9688 10.6059 22.9688 15C22.9688 19.3941 19.3941 22.9688 15 22.9688Z" fill="black"/>
<path d="M15 7.96875C11.123 7.96875 7.96875 11.123 7.96875 15C7.96875 18.877 11.123 22.0312 15 22.0312C18.877 22.0312 22.0312 18.877 22.0312 15C22.0312 11.123 18.877 7.96875 15 7.96875ZM15 21.0938C11.64 21.0938 8.90625 18.36 8.90625 15C8.90625 11.64 11.64 8.90625 15 8.90625C18.36 8.90625 21.0938 11.64 21.0938 15C21.0938 18.36 18.36 21.0938 15 21.0938Z" fill="black"/>
<path d="M15 4.21875C9.05484 4.21875 4.21875 9.05531 4.21875 15C4.21875 20.9447 9.05484 25.7812 15 25.7812C20.9452 25.7812 25.7812 20.9447 25.7812 15C25.7812 9.05531 20.9452 4.21875 15 4.21875ZM15 24.8438C9.57234 24.8438 5.15625 20.4281 5.15625 15C5.15625 9.57188 9.57234 5.15625 15 5.15625C20.4277 5.15625 24.8438 9.57188 24.8438 15C24.8438 20.4281 20.4277 24.8438 15 24.8438Z" fill="black"/>
<path d="M15 2.34375C8.02125 2.34375 2.34375 8.02125 2.34375 15C2.34375 21.9788 8.02125 27.6562 15 27.6562C21.9788 27.6562 27.6562 21.9788 27.6562 15C27.6562 8.02125 21.9788 2.34375 15 2.34375ZM15 26.7188C8.53828 26.7188 3.28125 21.4617 3.28125 15C3.28125 8.53828 8.53828 3.28125 15 3.28125C21.4617 3.28125 26.7188 8.53828 26.7188 15C26.7188 21.4617 21.4617 26.7188 15 26.7188Z" fill="black"/>
<path d="M15 0.46875C6.98719 0.46875 0.46875 6.98766 0.46875 15V25.7812C0.46875 26.6522 1.06828 27.3802 1.875 27.5897V29.5312H2.8125V27.5897C3.61922 27.3802 4.21875 26.6522 4.21875 25.7812V24.7312C6.87984 27.6769 10.7273 29.5312 15 29.5312C19.2727 29.5312 23.1202 27.6769 25.7812 24.7312V25.7812C25.7812 26.6522 26.3808 27.3802 27.1875 27.5897V29.5312H28.125V27.5897C28.9317 27.3802 29.5312 26.6522 29.5312 25.7812V15C29.5312 6.98766 23.0128 0.46875 15 0.46875ZM3.28125 25.7812C3.28125 26.2983 2.86078 26.7188 2.34375 26.7188C1.82672 26.7188 1.40625 26.2983 1.40625 25.7812V20.1286C1.87547 21.368 2.50922 22.5272 3.28125 23.5791V25.7812ZM15 28.5938C7.50469 28.5938 1.40625 22.4958 1.40625 15C1.40625 7.50422 7.50469 1.40625 15 1.40625C22.4953 1.40625 28.5938 7.50422 28.5938 15C28.5938 22.4958 22.4953 28.5938 15 28.5938ZM28.5938 25.7812C28.5938 26.2983 28.1733 26.7188 27.6562 26.7188C27.1392 26.7188 26.7188 26.2983 26.7188 25.7812V23.5791C27.4908 22.5272 28.1245 21.3684 28.5938 20.1286V25.7812Z" fill="black"/>
</svg>
