<svg width="30" height="30" viewBox="0 0 30 30" fill="none" xmlns="http://www.w3.org/2000/svg">
<g clip-path="url(#clip0_5_726)">
<path d="M8.34907 17.4505C8.68318 17.4505 9.00975 17.3493 9.29084 17.1543L16.9078 11.8815C17.642 11.373 17.8436 10.3827 17.367 9.62741C17.1284 9.24991 16.7572 8.98841 16.3213 8.89201C15.8862 8.7947 15.438 8.87483 15.062 9.11675L7.27143 14.1287C6.89333 14.3718 6.63514 14.7478 6.54386 15.1876C6.45227 15.6272 6.53904 16.0752 6.78759 16.4479L6.96172 16.7094C7.21117 17.0835 7.59168 17.336 8.03334 17.4204C8.13878 17.4405 8.24423 17.4505 8.34907 17.4505ZM7.83842 16.1261L7.66428 15.864C7.5727 15.7272 7.54076 15.5633 7.57481 15.4025C7.60825 15.241 7.70284 15.1033 7.84083 15.0141L15.6317 10.0022C15.7314 9.93832 15.8447 9.90548 15.9604 9.90548C16.0043 9.90548 16.0492 9.91 16.0935 9.91994C16.2529 9.95519 16.3891 10.0513 16.4764 10.1896C16.6512 10.4664 16.5774 10.8295 16.3083 11.0157L8.69161 16.2885C8.55574 16.3828 8.39245 16.4165 8.23097 16.3861C8.06889 16.3551 7.9294 16.2629 7.83842 16.1261Z" fill="black"/>
<path d="M28.9466 19.5627C28.9466 17.3116 25.7463 12.9143 24.7346 11.5802V7.49502C24.7346 6.4707 24.0537 5.61208 23.1243 5.32165V3.46402C23.1243 2.41891 22.2738 1.56873 21.229 1.56873H18.144C17.0992 1.56873 16.2487 2.41891 16.2487 3.46402V5.20777H15.9459C15.4883 5.20777 15.046 5.34274 14.667 5.59882L4.92846 12.1665C3.81346 12.9185 3.14795 14.1706 3.14795 15.5151V26.5154C3.14795 28.4369 4.71094 29.9999 6.63244 29.9999H21.2501C23.1716 29.9999 24.7349 28.4369 24.7349 26.5154V24.4032C27.1107 24.07 28.9466 22.0292 28.9466 19.5627ZM17.3019 3.46402C17.3019 2.99976 17.6797 2.62167 18.144 2.62167H21.229C21.6933 2.62167 22.0711 2.99976 22.0711 3.46402V5.20777H17.3019V3.46402ZM21.2501 28.947H6.63214C5.29119 28.947 4.20059 27.8561 4.20059 26.5154V15.5151C4.20059 14.5209 4.69286 13.5954 5.51744 13.0393L15.2563 6.4713C15.4606 6.33362 15.6989 6.26041 15.9459 6.26041H22.4476C23.1276 6.26041 23.6816 6.81445 23.6816 7.49471V11.1994C23.6684 11.2127 23.65 11.2181 23.6383 11.2329C23.1797 11.8201 19.1599 17.0426 19.1599 19.5627C19.1599 22.1356 21.157 24.2463 23.6816 24.4376V26.5157C23.6816 27.8561 22.591 28.947 21.2501 28.947ZM24.0534 23.4033C21.9361 23.4033 20.2131 21.6803 20.2131 19.5627C20.2131 17.9202 22.6914 14.2543 24.0534 12.4259C25.4161 14.254 27.8937 17.919 27.8937 19.5627C27.8937 21.6803 26.1704 23.4033 24.0534 23.4033Z" fill="black"/>
<path d="M7.73152 7.60798C8.78718 7.60798 9.6464 6.74906 9.6464 5.69311C9.6464 4.8137 8.49826 3.27481 8.14637 2.82411C7.94693 2.56864 7.51612 2.56864 7.31668 2.82411C6.96479 3.27481 5.81665 4.8137 5.81665 5.69311C5.81695 6.74906 6.67587 7.60798 7.73152 7.60798ZM7.73152 4.03853C8.19699 4.71187 8.59346 5.42196 8.59346 5.69311C8.59346 6.16821 8.20663 6.55504 7.73152 6.55504C7.25672 6.55504 6.86989 6.16821 6.86989 5.69311C6.86989 5.42257 7.26606 4.71217 7.73152 4.03853Z" fill="black"/>
<path d="M4.90763 3.0606C4.90763 2.1812 3.75949 0.642308 3.4076 0.191608C3.20816 -0.0638693 2.77735 -0.0638693 2.57791 0.191608C2.22602 0.642308 1.07788 2.1812 1.07788 3.0606C1.07788 4.11656 1.9371 4.97548 2.99275 4.97548C4.0484 4.97548 4.90763 4.11656 4.90763 3.0606ZM2.99306 3.92254C2.51795 3.92254 2.13112 3.53571 2.13112 3.0606C2.13112 2.79006 2.52759 2.07967 2.99306 1.40573C3.45822 2.07937 3.85469 2.78946 3.85469 3.0606C3.85469 3.53601 3.46816 3.92254 2.99306 3.92254Z" fill="black"/>
<path d="M26.3143 18.68C26.0232 18.68 25.7876 18.9159 25.7876 19.2066C25.7876 20.2225 24.961 21.0495 23.9448 21.0495C23.6537 21.0495 23.4185 21.2851 23.4185 21.5758C23.4185 21.8665 23.6537 22.1024 23.9448 22.1024C25.5415 22.1024 26.8406 20.8033 26.8406 19.2066C26.8406 18.9159 26.6053 18.68 26.3143 18.68Z" fill="black"/>
<path d="M19.4697 25.2615H8.41279C8.12177 25.2615 7.88647 25.4971 7.88647 25.7878C7.88647 26.0786 8.12177 26.3145 8.41279 26.3145H19.4697C19.7607 26.3145 19.996 26.0786 19.996 25.7878C19.996 25.4971 19.7607 25.2615 19.4697 25.2615Z" fill="black"/>
</g>
<defs>
<clipPath id="clip0_5_726">
<rect width="30" height="30" fill="white"/>
</clipPath>
</defs>
</svg>
