<svg width="30" height="30" viewBox="0 0 30 30" fill="none" xmlns="http://www.w3.org/2000/svg">
<g clip-path="url(#clip0_5_354)">
<path d="M20.3918 9.09076C20.0677 9.09076 19.8047 9.3526 19.8047 9.67647C19.8047 10.0001 20.0677 10.2624 20.3918 10.2624C20.7165 10.2624 20.9789 10.0001 20.9789 9.67647C20.9789 9.3526 20.7165 9.09076 20.3918 9.09076Z" fill="black"/>
<path d="M9.72478 19.7367C9.40005 19.7367 9.1377 19.9992 9.1377 20.3226C9.1377 20.6467 9.40005 20.9086 9.72478 20.9086C10.0488 20.9086 10.3119 20.6467 10.3119 20.3226C10.3119 19.9992 10.0488 19.7367 9.72478 19.7367Z" fill="black"/>
<path d="M29.3576 3.60466C29.1595 3.55865 28.9512 3.61839 28.8081 3.76258L26.3743 6.21094H25.2074L23.923 4.88273V3.70193L26.322 1.27189C26.4639 1.12815 26.5217 0.921473 26.4747 0.724864C26.4279 0.528483 26.283 0.370097 26.0913 0.305552C25.4886 0.102763 24.8579 -5.44624e-06 24.2165 -5.44624e-06C22.3043 -5.44624e-06 20.5672 0.889888 19.4503 2.44148C18.405 3.89396 18.0828 5.67398 18.5445 7.37755L14.22 11.6936L7.01537 4.48654V3.07205C7.01537 2.86628 6.90713 2.6754 6.73032 2.56965L2.57922 0.0835364C2.34805 -0.0549371 2.05245 -0.0185449 1.8621 0.171656L0.201753 1.82853C0.0114091 2.01873 -0.0250543 2.31376 0.113461 2.54448L2.60398 6.68747C2.70993 6.86394 2.90097 6.97174 3.10713 6.97197L4.52393 6.97243L11.7292 14.1795L7.42129 18.479C5.71439 18.0185 3.92997 18.3405 2.47395 19.3845C0.920244 20.4984 0.0292969 22.2318 0.0292969 24.1402C0.0292969 24.7801 0.132266 25.4098 0.335452 26.0111C0.400353 26.2035 0.560654 26.3489 0.758795 26.3947C0.957166 26.4407 1.16517 26.3809 1.3085 26.2367L3.74215 23.7886H4.9154L6.25216 25.1228V26.2937L3.79925 28.7226C3.65477 28.8657 3.59492 29.0733 3.64101 29.2712C3.68688 29.469 3.8325 29.629 4.02537 29.6938C4.62782 29.8966 5.25871 29.9993 5.89991 29.9993C7.81207 29.9993 9.54855 29.1099 10.6649 27.5592C11.7109 26.106 12.0336 24.3253 11.5722 22.6218L15.0321 19.1686L15.8246 20.0279L15.4609 20.3906C15.2316 20.6195 15.2316 20.9905 15.4609 21.2194C15.6902 21.4481 16.0618 21.4481 16.2913 21.2194L16.6206 20.8907L24.0569 28.9524C24.0624 28.9584 24.0681 28.9641 24.0738 28.9698C25.4498 30.3431 27.6791 30.3436 29.0558 28.9696C30.4286 27.5988 30.4286 25.3684 29.0558 23.9976C29.0499 23.9916 29.0437 23.9859 29.0375 23.9802L20.9474 16.5726L21.273 16.2476C21.5024 16.019 21.5024 15.648 21.273 15.4191C21.0437 15.1902 20.6722 15.1902 20.4426 15.4191L20.0814 15.7798L19.2189 14.9897L22.6956 11.5199C23.1898 11.6517 23.6998 11.7185 24.2165 11.7185C27.4537 11.7185 30.0871 9.09004 30.0871 5.85937C30.0871 5.21919 29.9841 4.58976 29.781 3.98826C29.7161 3.79577 29.5558 3.65043 29.3576 3.60466ZM5.18303 5.97267C5.07295 5.86258 4.92366 5.8065 4.76771 5.8065L3.43989 5.80604L1.3562 2.3339L2.36823 1.32385L5.8412 3.40393V4.72915C5.8412 4.88434 5.90289 5.03311 6.01274 5.14297L13.3898 12.5224L12.5594 13.3509L5.18303 5.97267ZM20.1163 17.4021L28.2339 24.8346C29.1407 25.7492 29.1379 27.2301 28.2254 28.1413C27.3108 29.054 25.8303 29.0568 24.9121 28.1493L17.4515 20.0613L20.1163 17.4021ZM19.2504 16.609L16.6555 19.1984L15.8629 18.3392L18.3878 15.8189L19.2504 16.609ZM24.2165 10.5466C23.703 10.5466 23.198 10.4645 22.716 10.3024C22.5048 10.2317 22.2713 10.2862 22.1135 10.4434C19.1703 13.3809 12.8284 19.7102 10.4932 22.0411C10.3354 22.1986 10.2806 22.4316 10.3519 22.6426C10.8399 24.0889 10.6065 25.6316 9.71115 26.8755C8.81837 28.1159 7.42908 28.8274 5.89991 28.8274C5.72815 28.8274 5.55729 28.8181 5.38805 28.8L7.25273 26.9534C7.36373 26.8435 7.42633 26.6938 7.42633 26.5375V24.8799C7.42633 24.7245 7.36441 24.5755 7.25434 24.4656L5.57358 22.7882C5.4635 22.6783 5.3142 22.6165 5.15849 22.6165H3.49768C3.34105 22.6165 3.19107 22.679 3.08076 22.7898L1.23076 24.6508C1.21241 24.4819 1.20324 24.3114 1.20324 24.1399C1.20324 22.6135 1.91599 21.2272 3.15896 20.3362C4.40514 19.4426 5.95105 19.2094 7.40042 19.6967C7.61163 19.7678 7.84509 19.7131 8.00287 19.5557C8.0352 19.5236 19.615 7.96623 19.6232 7.95799C19.781 7.80052 19.8356 7.56775 19.7645 7.35672C19.2763 5.91041 19.5093 4.36821 20.4039 3.12515C21.2974 1.88369 22.6869 1.17187 24.2163 1.17187C24.3933 1.17187 24.5692 1.18171 24.7435 1.20094L22.9176 3.05053C22.8093 3.16017 22.7488 3.3078 22.7488 3.46161V5.11917C22.7488 5.27115 22.8077 5.41694 22.9134 5.52612L24.5355 7.2036C24.646 7.31804 24.7985 7.38258 24.9579 7.38258H26.6187C26.7751 7.38258 26.9251 7.32033 27.0354 7.20932L28.8854 5.34851C28.9038 5.51742 28.9129 5.68794 28.9129 5.85937C28.9129 8.44391 26.8061 10.5466 24.2165 10.5466Z" fill="black"/>
<path d="M18.3163 10.9193L10.9697 18.2515C10.7406 18.4802 10.7406 18.8512 10.9697 19.0801C11.199 19.3089 11.5708 19.3089 11.8001 19.0801L19.1467 11.7478C19.376 11.5192 19.376 11.1482 19.1467 10.9193C18.9173 10.6904 18.5456 10.6904 18.3163 10.9193Z" fill="black"/>
<path d="M25.7351 26.4844C25.9644 26.7126 26.3362 26.7126 26.5655 26.483C26.7944 26.2539 26.7937 25.8829 26.5641 25.6545L21.2724 20.3899C21.0428 20.1615 20.6708 20.1622 20.4422 20.3913C20.2131 20.6207 20.2138 20.9914 20.4433 21.2199L25.7351 26.4844Z" fill="black"/>
</g>
<defs>
<clipPath id="clip0_5_354">
<rect width="30" height="30" fill="white"/>
</clipPath>
</defs>
</svg>
