<svg width="30" height="30" viewBox="0 0 30 30" fill="none" xmlns="http://www.w3.org/2000/svg">
<path d="M12.3674 21.0032L11.1645 15.5876C11.112 15.3515 10.8782 15.2025 10.6422 15.2552C10.4061 15.3076 10.2573 15.5414 10.3097 15.7774L11.5127 21.193C11.558 21.3971 11.739 21.536 11.9397 21.536C11.9711 21.536 12.003 21.5326 12.035 21.5254C12.271 21.473 12.4198 21.2392 12.3674 21.0032Z" fill="black"/>
<path d="M14.3972 21.0658L13.9963 15.6502C13.9784 15.4091 13.7693 15.2287 13.5274 15.246C13.2863 15.2638 13.1053 15.4737 13.1232 15.7149L13.5241 21.1305C13.5412 21.3606 13.7331 21.5359 13.9602 21.5359C13.9711 21.5359 13.982 21.5355 13.993 21.5348C14.2341 21.5169 14.4151 21.307 14.3972 21.0658Z" fill="black"/>
<path d="M16.4141 15.246C16.1731 15.2286 15.963 15.4091 15.9451 15.6502L15.5442 21.0658C15.5263 21.3069 15.7073 21.5168 15.9484 21.5347C15.9594 21.5355 15.9703 21.5359 15.9812 21.5359C16.2082 21.5359 16.4002 21.3605 16.4173 21.1304L16.8182 15.7148C16.8362 15.4737 16.6552 15.2638 16.4141 15.246Z" fill="black"/>
<path d="M19.2981 15.2551C19.0619 15.2025 18.8282 15.3515 18.7757 15.5876L17.5728 21.0032C17.5203 21.2392 17.6692 21.473 17.9052 21.5254C17.9372 21.5326 17.9692 21.536 18.0006 21.536C18.2012 21.536 18.3822 21.397 18.4275 21.193L19.6305 15.7774C19.683 15.5414 19.5341 15.3076 19.2981 15.2551Z" fill="black"/>
<path d="M14.9999 0C9.84819 0 5.65698 4.1912 5.65698 9.34293C5.65698 10.3117 5.80528 11.2677 6.0979 12.1849C6.09854 12.1878 6.09983 12.1905 6.10059 12.1933C6.10112 12.1954 6.10171 12.1975 6.10224 12.1995C6.10347 12.2042 6.10452 12.2088 6.10593 12.2134C6.10874 12.2225 6.11214 12.2315 6.1156 12.2404C6.11753 12.2456 6.11934 12.2508 6.12151 12.2558C6.12257 12.2584 6.12333 12.261 6.12444 12.2635C6.22235 12.4833 6.31909 12.7014 6.41495 12.9186C7.97085 16.4429 9.28369 19.7282 9.86078 23.5294C9.95278 24.1354 10.3557 24.6176 10.8938 24.8253V28.0535C10.8938 29.1268 11.7671 30 12.8403 30H17.1595C18.2328 30 19.106 29.1268 19.106 28.0535V24.8253C19.6442 24.6175 20.0471 24.1354 20.139 23.5294C20.7158 19.7306 22.0272 16.4474 23.5817 12.9259C23.6786 12.7063 23.7764 12.4858 23.8754 12.2635C23.8828 12.247 23.8887 12.2303 23.894 12.2134C23.8954 12.2088 23.8964 12.2042 23.8977 12.1995C23.8982 12.1974 23.8988 12.1953 23.8994 12.1932C24.1937 11.2735 24.3429 10.3147 24.3429 9.34293C24.3428 4.1912 20.1516 0 14.9999 0ZM18.2304 27.4827H14.8533C14.6115 27.4827 14.4155 27.6787 14.4155 27.9205C14.4155 28.1622 14.6115 28.3582 14.8533 28.3582H18.1856C18.0539 28.8006 17.644 29.1243 17.1595 29.1243H12.8403C12.3558 29.1243 11.946 28.8006 11.8142 28.3582H12.8161C13.0578 28.3582 13.2538 28.1622 13.2538 27.9205C13.2538 27.6787 13.0578 27.4827 12.8161 27.4827H11.7694V26.5293H12.8161C13.0578 26.5293 13.2538 26.3333 13.2538 26.0916C13.2538 25.8498 13.0578 25.6538 12.8161 25.6538H11.7694V24.9362H18.2304V25.6538H14.8531C14.6113 25.6538 14.4153 25.8498 14.4153 26.0916C14.4153 26.3334 14.6113 26.5293 14.8531 26.5293H18.2304V27.4827ZM22.7558 12.6286C22.7515 12.6385 22.747 12.6486 22.7427 12.6585C22.7424 12.659 22.7422 12.6596 22.742 12.6602C21.1786 16.207 19.8612 19.5266 19.2734 23.398C19.2209 23.7437 18.9543 24.0034 18.6204 24.0519C18.617 24.0523 18.6136 24.0522 18.6102 24.0527C18.5905 24.0553 18.573 24.0572 18.5567 24.0585C18.5404 24.0595 18.5241 24.0607 18.5074 24.0607H11.4924C11.4759 24.0607 11.4596 24.0595 11.4432 24.0585C11.4269 24.0571 11.4094 24.0553 11.3898 24.0527C11.3864 24.0522 11.3831 24.0523 11.3798 24.0519C11.0457 24.0035 10.779 23.7438 10.7264 23.398C10.1387 19.5268 8.82127 16.2071 7.25788 12.6602C7.25764 12.6596 7.25747 12.659 7.25723 12.6585C7.25284 12.6486 7.24833 12.6384 7.24393 12.6285C7.23749 12.6138 7.2311 12.5992 7.2246 12.5846C7.29409 12.5902 7.3637 12.595 7.43319 12.6005C7.58049 12.6122 7.72792 12.6233 7.87534 12.6343C8.06659 12.6486 8.25784 12.6623 8.4492 12.6754C8.5975 12.6856 8.74586 12.6954 8.89422 12.7049C9.0853 12.717 9.27637 12.7286 9.46756 12.7397C9.61592 12.7482 9.76428 12.7567 9.91276 12.7645C10.1052 12.7747 10.2978 12.7841 10.4904 12.7932C10.6371 12.8001 10.7838 12.807 10.9305 12.8133C11.1269 12.8216 11.3235 12.8288 11.5201 12.836C11.6627 12.8411 11.8053 12.8467 11.9479 12.8512C12.1536 12.8577 12.3594 12.8629 12.5652 12.8682C12.6984 12.8716 12.8315 12.8755 12.9647 12.8783C13.1931 12.8832 13.4216 12.8864 13.6501 12.8896C13.7608 12.8912 13.8715 12.8935 13.9823 12.8946C14.6609 12.9019 15.3398 12.9018 16.0184 12.8946C16.1264 12.8935 16.2343 12.8912 16.3422 12.8897C16.5737 12.8865 16.8052 12.8832 17.0367 12.8782C17.1669 12.8755 17.297 12.8716 17.4272 12.8683C17.6362 12.8631 17.8453 12.8577 18.0542 12.8511C18.1944 12.8467 18.3344 12.8413 18.4746 12.8362C18.6735 12.829 18.8724 12.8216 19.0713 12.8132C19.2164 12.807 19.3613 12.8001 19.5064 12.7933C19.7005 12.7842 19.8947 12.7748 20.0888 12.7644C20.2361 12.7566 20.3834 12.7483 20.5307 12.7398C20.7226 12.7287 20.9145 12.7171 21.1064 12.7049C21.2544 12.6954 21.4023 12.6856 21.5502 12.6755C21.7421 12.6624 21.9339 12.6485 22.1257 12.6342C22.2723 12.6232 22.4188 12.6122 22.5653 12.6006C22.6353 12.5951 22.7053 12.5903 22.7753 12.5846C22.7687 12.5993 22.7623 12.6139 22.7558 12.6286ZM23.1417 11.6742C22.9961 11.6867 22.8503 11.6986 22.7045 11.7105C22.5442 11.7235 22.384 11.7371 22.2236 11.7493C22.0392 11.7634 21.8547 11.776 21.6702 11.789C21.5117 11.8002 21.3532 11.8119 21.1947 11.8223C21.0075 11.8345 20.8201 11.8452 20.6328 11.8564C20.4766 11.8656 20.3205 11.8755 20.1642 11.884C19.9732 11.8944 19.7819 11.9032 19.5907 11.9124C19.4381 11.9198 19.2855 11.9279 19.1328 11.9345C18.9359 11.9431 18.7389 11.9499 18.5418 11.9573C18.3947 11.9628 18.2475 11.9691 18.1003 11.9739C17.8933 11.9806 17.6861 11.9856 17.479 11.991C17.3417 11.9946 17.2045 11.999 17.0672 12.002C16.8373 12.007 16.6074 12.0101 16.3774 12.0134C16.2628 12.015 16.1482 12.0177 16.0335 12.0189C15.689 12.0227 15.3444 12.0246 14.9998 12.0246C14.999 12.0246 14.9982 12.0246 14.9973 12.0246C14.6536 12.0246 14.3099 12.0227 13.9661 12.0189C13.8499 12.0176 13.7337 12.015 13.6175 12.0133C13.3892 12.0099 13.1608 12.0069 12.9326 12.002C12.7937 11.999 12.6549 11.9944 12.5161 11.9908C12.3106 11.9854 12.1051 11.9806 11.8997 11.9739C11.751 11.969 11.6025 11.9627 11.4538 11.9572C11.2583 11.9499 11.0627 11.9431 10.8672 11.9346C10.7133 11.9279 10.5594 11.9198 10.4055 11.9123C10.2156 11.9031 10.0256 11.8944 9.83576 11.8841C9.67856 11.8755 9.52147 11.8656 9.36432 11.8562C9.17793 11.8452 8.99155 11.8345 8.80528 11.8223C8.64608 11.8119 8.487 11.8002 8.32786 11.789C8.14393 11.776 7.96001 11.7634 7.7762 11.7494C7.61553 11.7371 7.45505 11.7235 7.2945 11.7105C7.14889 11.6986 7.00329 11.6868 6.8578 11.6743C6.64165 10.9183 6.53225 10.1355 6.53225 9.34299C6.53225 4.67407 10.3307 0.875623 14.9996 0.875623C19.6685 0.875623 23.467 4.67407 23.467 9.34299C23.4673 10.1355 23.3579 10.9183 23.1417 11.6742Z" fill="black"/>
</svg>
