<svg width="30" height="30" viewBox="0 0 30 30" fill="none" xmlns="http://www.w3.org/2000/svg">
<path d="M4.0098 11.857C4.0098 5.9745 8.60876 1.15229 14.4797 0.87872C14.7223 0.867411 14.9098 0.661571 14.8985 0.41911C14.8872 0.17659 14.681 -0.00903502 14.4389 0.000339984C11.3875 0.142547 8.54115 1.43899 6.4241 3.65097C2.10345 8.16538 2.04749 15.2055 6.17249 19.792C6.25927 19.8885 6.37915 19.9376 6.49945 19.9376C6.60421 19.9376 6.70933 19.9004 6.79335 19.8248C6.97382 19.6624 6.98859 19.3845 6.82622 19.2039C5.00999 17.1846 4.0098 14.5754 4.0098 11.857Z" fill="black"/>
<path d="M23.8014 3.89284C21.8369 1.72311 19.159 0.359638 16.2609 0.0534858C16.0192 0.0291108 15.803 0.203134 15.7774 0.44454C15.752 0.686005 15.927 0.90245 16.1685 0.927997C21.7679 1.51938 25.9904 6.21784 25.9905 11.857C25.9905 17.9171 21.0603 22.8474 15.0001 22.8474C12.4713 22.8474 10.0025 21.9675 8.04846 20.3699C7.86049 20.2164 7.58346 20.244 7.42982 20.432C7.27619 20.62 7.30396 20.897 7.49193 21.0507C8.62004 21.973 9.90711 22.6737 11.2779 23.1263V25.4277C11.2779 25.9933 11.738 26.4535 12.3037 26.4535H12.714V29.2672C12.714 29.6712 13.0427 29.9999 13.4467 29.9999H16.5535C16.9575 29.9999 17.2862 29.6712 17.2862 29.2672V26.4535H17.6965C18.2622 26.4535 18.7223 25.9933 18.7223 25.4277V23.1282C23.4495 21.5631 26.8697 17.1022 26.8697 11.857C26.8697 8.90653 25.7801 6.07815 23.8014 3.89284ZM16.407 29.1207H13.5933V26.4536H16.407V29.1207ZM17.8431 25.4277C17.8431 25.5085 17.7774 25.5743 17.6966 25.5743H12.3037C12.2228 25.5743 12.1571 25.5085 12.1571 25.4277V23.3794C13.0824 23.608 14.0372 23.7266 15.0001 23.7266C15.9798 23.7266 16.9318 23.6065 17.843 23.3816V25.4277H17.8431Z" fill="black"/>
<path d="M23.2855 8.24788C23.503 8.13983 23.5917 7.87599 23.4837 7.65854C22.7106 6.10247 21.5246 4.78739 20.054 3.8554C13.8008 -0.107532 5.53394 4.39452 5.53394 11.857C5.53394 17.0767 9.78051 21.3233 15.0002 21.3233C21.1997 21.3233 25.7746 15.4117 24.1378 9.37985C24.0742 9.14542 23.8326 9.00708 23.5984 9.07065C23.364 9.13423 23.2256 9.37575 23.2892 9.61007C24.7738 15.0818 20.6236 20.444 15.0002 20.444C10.2653 20.444 6.41319 16.5919 6.41319 11.857C6.41319 7.12206 10.2653 3.26999 15.0003 3.26999C18.2825 3.26999 21.2315 5.10151 22.6962 8.04977C22.8043 8.26727 23.0681 8.35581 23.2855 8.24788Z" fill="black"/>
<path d="M20.0207 16.4298C20.1474 16.4298 20.2731 16.3753 20.3601 16.2699C24.0675 11.7747 20.8736 4.91125 15.0002 4.91125C9.13304 4.91125 5.92773 11.7684 9.64035 16.2699C9.79492 16.4573 10.072 16.4838 10.2593 16.3293C10.4466 16.1748 10.4732 15.8977 10.3187 15.7104C9.51929 14.7412 9.04257 13.5429 8.95111 12.2966H10.3992C10.642 12.2966 10.8388 12.0998 10.8388 11.857C10.8388 11.6141 10.642 11.4173 10.3992 11.4173H8.94976C9.04638 10.0748 9.58163 8.85174 10.4128 7.89145C11.5056 8.98417 11.5056 9.04323 11.7467 9.04323C12.135 9.04323 12.3353 8.57049 12.0576 8.2927L11.0346 7.26965C11.9949 6.43838 13.2179 5.90319 14.5605 5.80657V7.256C14.5605 7.49881 14.7573 7.69563 15.0001 7.69563C15.2429 7.69563 15.4397 7.49881 15.4397 7.256V5.80663C16.7823 5.90325 18.0053 6.4385 18.9656 7.26971L17.9426 8.29276C17.7709 8.4645 17.7709 8.74282 17.9426 8.91456C18.0284 9.00034 18.1409 9.04329 18.2534 9.04329C18.3659 9.04329 18.4784 9.00034 18.5643 8.91456L19.5874 7.89151C20.4187 8.8518 20.9539 10.0748 21.0505 11.4174H19.601C19.3582 11.4174 19.1614 11.6142 19.1614 11.857C19.1614 12.0998 19.3582 12.2966 19.601 12.2966H21.0491C20.9577 13.5429 20.481 14.7412 19.6816 15.7104C19.4449 15.9976 19.6516 16.4298 20.0207 16.4298Z" fill="black"/>
<path d="M15.0002 13.723C15.3402 13.723 15.659 13.6311 15.9338 13.4716L18.1331 15.6709C18.219 15.7567 18.3315 15.7996 18.444 15.7996C18.5565 15.7996 18.669 15.7567 18.7549 15.6709C18.9266 15.4992 18.9266 15.2208 18.7549 15.0491L16.5699 12.864C16.7571 12.5733 16.8662 12.2277 16.8662 11.857C16.8662 10.8281 16.0291 9.99099 15.0002 9.99099C14.6294 9.99099 14.2839 10.1002 13.9932 10.2873L13.1798 9.4739C13.008 9.30228 12.7297 9.30228 12.558 9.4739C12.3863 9.64564 12.3863 9.92396 12.558 10.0957L13.3857 10.9234C13.2261 11.1982 13.1342 11.517 13.1342 11.857C13.1342 12.8859 13.9713 13.723 15.0002 13.723ZM15.0002 10.8703C15.5443 10.8703 15.9869 11.3129 15.9869 11.857C15.9869 12.4011 15.5443 12.8437 15.0002 12.8437C14.4561 12.8437 14.0135 12.4011 14.0135 11.857C14.0135 11.3129 14.4561 10.8703 15.0002 10.8703Z" fill="black"/>
</svg>
