<svg width="30" height="30" viewBox="0 0 30 30" fill="none" xmlns="http://www.w3.org/2000/svg">
<g clip-path="url(#clip0_5_362)">
<path d="M5.87453 27C5.61145 27.005 5.3587 26.8977 5.17953 26.705C5.055 26.5721 4.99425 26.3917 5.01303 26.2105C5.03807 26.031 4.96396 25.8519 4.81934 25.7426C4.67473 25.6333 4.48227 25.6108 4.31635 25.6838C4.15044 25.7569 4.03705 25.914 4.02003 26.0945C3.9679 26.5594 4.11837 27.0243 4.43303 27.3705C4.80204 27.7759 5.32634 28.0049 5.87453 28C6.15067 28 6.37453 27.7761 6.37453 27.5C6.37453 27.2239 6.15067 27 5.87453 27Z" fill="black"/>
<path d="M30 20.75C29.9978 18.956 28.544 17.5022 26.75 17.5C26.3255 17.5003 25.9053 17.5853 25.514 17.75L23.138 14.662C23.5228 14.2175 23.6096 13.5881 23.3595 13.056L22.3305 10.85C22.133 10.4261 21.8142 10.0703 21.4145 9.8275L21.212 9.7045C21.0117 9.58421 20.7947 9.49423 20.568 9.4375L18.3795 4.74201C18.5889 4.45275 18.6233 4.07208 18.469 3.75001L16.9895 0.577507C16.8774 0.337026 16.6743 0.150961 16.4249 0.0602783C16.1756 -0.0304049 15.9004 -0.0182713 15.66 0.0940074L13.85 0.939007C13.7785 0.972957 13.7113 1.01543 13.65 1.06551C12.578 0.0915075 10.894 -0.115992 9.506 0.0590074C8.203 0.227007 6.561 0.782007 5.859 1.83651C5.50339 2.36927 5.40386 3.03285 5.5875 3.64651C5.81639 4.36624 6.26247 4.99747 6.8645 5.45351C7.73974 6.14424 8.67419 6.75645 9.657 7.283C10.5626 7.7677 11.426 8.32749 12.238 8.9565C14.1065 10.492 15.288 12.4065 15.4725 14.2065C15.6855 16.2565 14.597 17.8965 13.2195 19.349L13.1725 18.944C13.057 17.9657 12.6483 17.0452 12 16.3035V13C11.9983 11.3438 10.6562 10.0017 9 10H7C5.34383 10.0017 4.00165 11.3438 4 13V16.3135C3.35672 17.0538 2.95113 17.9705 2.836 18.9445L2.25 24H1C0.447715 24 0 24.4477 0 25V29C0 29.5523 0.447715 30 1 30H3C3.36957 29.9986 3.70806 29.7929 3.8795 29.4655C4.48585 29.8162 5.17404 30.0006 5.8745 30H10.134C10.8319 30.0009 11.5178 29.8179 12.1225 29.4695C12.2952 29.7942 12.6322 29.998 13 30H15C15.5523 30 16 29.5523 16 29V25C16 24.4477 15.5523 24 15 24H13.759L13.367 20.623C15.092 18.932 16.752 16.841 16.467 14.1035C16.252 12.043 14.942 9.8855 12.8715 8.184C12.0167 7.5193 11.1075 6.92772 10.1535 6.4155C9.22078 5.91827 8.33398 5.33934 7.5035 4.68551C7.06046 4.35855 6.7278 3.90413 6.55 3.38301C6.44186 3.04845 6.49328 2.68277 6.6895 2.39101C7.175 1.66501 8.5175 1.19501 9.632 1.05001C10.754 0.909507 12.2145 1.06501 13.036 1.86851L12.6995 2.02501C12.2188 2.24925 11.8469 2.65526 11.6655 3.15373C11.4842 3.6522 11.5083 4.2023 11.7325 4.68301L11.944 5.13601C12.1668 5.61749 12.5723 5.99035 13.0708 6.1721C13.5692 6.35386 14.1195 6.32953 14.6 6.10451L15.181 5.83351C15.3221 5.93048 15.4859 5.98922 15.6565 6.00401L17.848 10.704C17.7457 10.9143 17.6751 11.1385 17.6385 11.3695L17.603 11.603C17.5312 12.0654 17.5989 12.5387 17.7975 12.9625L18.826 15.1685C19.0735 15.6964 19.6034 16.0341 20.1865 16.0355C20.2383 16.0326 20.2898 16.0269 20.341 16.0185L20.685 17.4795C18.8099 18.382 17.7412 20.4005 18.0486 22.4587C18.356 24.5168 19.968 26.1348 22.025 26.45C22.2198 28.1876 23.5206 29.5974 25.237 29.931C26.9534 30.2645 28.6876 29.4446 29.519 27.9064C30.3504 26.3682 30.0863 24.4682 28.867 23.215C29.5876 22.5991 30.0018 21.698 30 20.75ZM7 11H9C10.1046 11 11 11.8954 11 13V15.4155C9.18623 14.1929 6.81152 14.1951 5 15.421V13C5 11.8954 5.89543 11 7 11ZM1 29V25H2.1335L2.0335 25.8645C1.91163 26.8963 2.2422 27.9303 2.94 28.7C2.959 28.721 2.9805 28.7395 3 28.7605V29H1ZM5.8745 29C5.04106 29.0049 4.24511 28.654 3.6865 28.0355C3.17973 27.4777 2.93906 26.728 3.0265 25.9795L3.829 19.06C4.11646 16.9856 5.9118 15.4553 8.0055 15.5C10.0985 15.4557 11.8927 16.9862 12.179 19.06L12.9825 25.9795C13.0699 26.7278 12.8292 27.4774 12.3225 28.035C12.2675 28.097 12.2085 28.1535 12.1485 28.21L12.145 28.2135C11.5988 28.7215 10.8799 29.0026 10.134 29H5.8745ZM15 25V29H13V28.7695C13.0225 28.7455 13.047 28.7245 13.069 28.7C13.767 27.9304 14.0976 26.8963 13.9755 25.8645L13.875 25H15ZM18.55 9.8425L16.624 5.71251L17.53 5.29001L19.456 9.42C19.292 9.45615 19.1322 9.50962 18.9795 9.5795C18.8273 9.65147 18.6833 9.73965 18.55 9.8425ZM16.083 1.00001L17.563 4.17151L15.75 5.01701L14.2705 1.84501L16.083 1.00001ZM14.1785 5.20001C13.9381 5.31267 13.6626 5.32477 13.4132 5.23363C13.1639 5.14249 12.9611 4.95564 12.85 4.71451L12.6385 4.26101C12.4054 3.76049 12.6221 3.16579 13.1225 2.93251L13.5755 2.72101L14.632 4.98701L14.1785 5.20001ZM19.734 14.745L18.705 12.539C18.5908 12.294 18.5518 12.0206 18.593 11.7535L18.6285 11.5195C18.6971 11.0669 18.9877 10.6787 19.4026 10.4852C19.8175 10.2917 20.3016 10.3187 20.6925 10.557L20.895 10.68C21.126 10.8203 21.3103 11.026 21.4245 11.271L22.453 13.4775C22.5694 13.7277 22.4611 14.0249 22.211 14.1415L20.4 14.987C20.2796 15.0435 20.1417 15.0498 20.0167 15.0043C19.8917 14.9589 19.79 14.8656 19.734 14.745ZM27.815 22.7285C27.6614 22.8096 27.5608 22.9645 27.5494 23.1378C27.538 23.3112 27.6173 23.478 27.759 23.5785C28.9083 24.4104 29.3177 25.9338 28.7402 27.2298C28.1627 28.5258 26.7562 29.24 25.369 28.9416C23.9819 28.6432 22.9935 27.4138 23 25.995C23.0005 25.73 22.794 25.5106 22.5295 25.495C20.8677 25.3953 19.4705 24.2118 19.0988 22.589C18.7271 20.9662 19.4698 19.2927 20.9225 18.4795L22.013 23.1135C22.0539 23.2875 22.1845 23.4264 22.3556 23.478C22.5268 23.5296 22.7124 23.4859 22.8426 23.3635C22.9729 23.2411 23.0279 23.0585 22.987 22.8845L21.2895 15.6745L22.295 15.206L26.6035 20.806C26.7125 20.9477 26.8887 21.0204 27.0659 20.9969C27.243 20.9733 27.3942 20.8571 27.4624 20.6919C27.5306 20.5267 27.5055 20.3377 27.3965 20.196L26.155 18.5815C26.3487 18.5274 26.5489 18.5 26.75 18.5C27.7786 18.5029 28.6742 19.203 28.9254 20.2005C29.1766 21.1979 28.7195 22.2387 27.815 22.7285Z" fill="black"/>
<path d="M8 16.5C6.34315 16.5 5 17.8431 5 19.5C5 21.1569 6.34315 22.5 8 22.5C9.65685 22.5 11 21.1569 11 19.5C10.9983 17.8438 9.65617 16.5017 8 16.5ZM8 21.5C6.99412 21.5013 6.14447 20.7538 6.01748 19.756C5.8905 18.7581 6.52586 17.8217 7.5 17.571V19C7.5 19.2761 7.72386 19.5 8 19.5C8.27614 19.5 8.5 19.2761 8.5 19V17.571C9.47414 17.8217 10.1095 18.7581 9.98252 19.756C9.85553 20.7538 9.00589 21.5013 8 21.5Z" fill="black"/>
</g>
<defs>
<clipPath id="clip0_5_362">
<rect width="30" height="30" fill="white"/>
</clipPath>
</defs>
</svg>
