<svg width="30" height="30" viewBox="0 0 30 30" fill="none" xmlns="http://www.w3.org/2000/svg">
<path d="M28.7838 11.3514H1.2162C1.10868 11.3514 1.00556 11.3086 0.929532 11.2326C0.853503 11.1566 0.810791 11.0535 0.810791 10.946V8.11866C0.810791 8.01114 0.853503 7.90803 0.929532 7.832C1.00556 7.75597 1.10868 7.71326 1.2162 7.71326H28.7838C28.8913 7.71326 28.9944 7.75597 29.0704 7.832C29.1465 7.90803 29.1892 8.01114 29.1892 8.11866V10.946C29.1892 11.0535 29.1465 11.1566 29.0704 11.2326C28.9944 11.3086 28.8913 11.3514 28.7838 11.3514ZM1.6216 10.5405H28.3784V8.52407H1.6216V10.5405Z" fill="black"/>
<path d="M27.5677 25.5405H2.43251C2.32498 25.5405 2.22187 25.4978 2.14584 25.4218C2.06981 25.3458 2.0271 25.2426 2.0271 25.1351V10.946H2.83791V24.7297H27.1622V10.946H27.9731V25.1351C27.9731 25.2426 27.9303 25.3458 27.8543 25.4218C27.7783 25.4978 27.6752 25.5405 27.5677 25.5405Z" fill="black"/>
<path d="M7.70274 8.52405H4.05409C3.94657 8.52405 3.84345 8.48134 3.76742 8.40531C3.69139 8.32929 3.64868 8.22617 3.64868 8.11865V6.48649C3.64868 6.37897 3.69139 6.27585 3.76742 6.19983C3.84345 6.1238 3.94657 6.08109 4.05409 6.08109H7.70274C7.81026 6.08109 7.91337 6.1238 7.9894 6.19983C8.06543 6.27585 8.10814 6.37897 8.10814 6.48649V8.11865C8.10814 8.22617 8.06543 8.32929 7.9894 8.40531C7.91337 8.48134 7.81026 8.52405 7.70274 8.52405ZM4.45949 7.71324H7.29733V6.89189H4.45949V7.71324Z" fill="black"/>
<path d="M13.7863 8.52405H10.5407C10.4331 8.52405 10.33 8.48134 10.254 8.40531C10.178 8.32929 10.1353 8.22617 10.1353 8.11865V6.48649C10.1353 6.37897 10.178 6.27585 10.254 6.19983C10.33 6.1238 10.4331 6.08109 10.5407 6.08109H13.7863C13.8939 6.08109 13.997 6.1238 14.073 6.19983C14.149 6.27585 14.1917 6.37897 14.1917 6.48649V8.11865C14.1917 8.22617 14.149 8.32929 14.073 8.40531C13.997 8.48134 13.8939 8.52405 13.7863 8.52405ZM10.9461 7.71324H13.3809V6.89189H10.9461V7.71324Z" fill="black"/>
<path d="M19.8649 8.52405H16.6193C16.5118 8.52405 16.4086 8.48134 16.3326 8.40531C16.2566 8.32929 16.2139 8.22617 16.2139 8.11865V6.48649C16.2139 6.37897 16.2566 6.27585 16.3326 6.19983C16.4086 6.1238 16.5118 6.08109 16.6193 6.08109H19.8649C19.9725 6.08109 20.0756 6.1238 20.1516 6.19983C20.2276 6.27585 20.2703 6.37897 20.2703 6.48649V8.11865C20.2703 8.22617 20.2276 8.32929 20.1516 8.40531C20.0756 8.48134 19.9725 8.52405 19.8649 8.52405ZM17.0247 7.71324H19.4595V6.89189H17.0247V7.71324Z" fill="black"/>
<path d="M25.946 8.52405H22.7028C22.5952 8.52405 22.4921 8.48134 22.4161 8.40531C22.3401 8.32929 22.2974 8.22617 22.2974 8.11865V6.48649C22.2974 6.37897 22.3401 6.27585 22.4161 6.19983C22.4921 6.1238 22.5952 6.08109 22.7028 6.08109H25.946C26.0535 6.08109 26.1567 6.1238 26.2327 6.19983C26.3087 6.27585 26.3514 6.37897 26.3514 6.48649V8.11865C26.3514 8.22617 26.3087 8.32929 26.2327 8.40531C26.1567 8.48134 26.0535 8.52405 25.946 8.52405ZM23.1082 7.71324H25.5406V6.89189H23.1082V7.71324Z" fill="black"/>
<path d="M5.29102 12.765H6.10183V15.5291H5.29102V12.765Z" fill="black"/>
<path d="M4.3147 13.7416H7.07835V14.5524H4.3147V13.7416Z" fill="black"/>
<path d="M22.9216 13.7416H25.6853V14.5524H22.9216V13.7416Z" fill="black"/>
<path d="M13.4034 23.5135C13.3435 23.5131 13.2845 23.4993 13.2307 23.473C13.1475 23.4339 13.0801 23.3676 13.0395 23.2851C12.9989 23.2026 12.9876 23.1087 13.0073 23.0189L13.9102 18.9276H11.6014C11.5331 18.9273 11.4661 18.9098 11.4064 18.8768C11.3467 18.8437 11.2963 18.7961 11.2599 18.7383C11.2236 18.6806 11.2023 18.6146 11.1982 18.5465C11.1941 18.4784 11.2073 18.4103 11.2365 18.3487L13.6921 13.1595C13.7248 13.0903 13.7764 13.0319 13.841 12.9908C13.9056 12.9498 13.9804 12.9279 14.0569 12.9276H16.3337C16.4015 12.9276 16.4683 12.9446 16.5278 12.9771C16.5873 13.0096 16.6378 13.0566 16.6745 13.1136C16.7112 13.1706 16.733 13.236 16.7379 13.3036C16.7428 13.3713 16.7307 13.4391 16.7026 13.5008L15.4244 16.3139H18.3988C18.4748 16.3139 18.5493 16.3353 18.6137 16.3755C18.6782 16.4158 18.73 16.4733 18.7633 16.5417C18.7966 16.61 18.8101 16.6862 18.8021 16.7618C18.7941 16.8374 18.7651 16.9092 18.7183 16.9691L13.7229 23.3574C13.685 23.406 13.6365 23.4453 13.5812 23.4724C13.5258 23.4994 13.465 23.5135 13.4034 23.5135ZM12.2431 18.118H14.4165C14.4772 18.118 14.5371 18.1315 14.5918 18.1577C14.6465 18.1839 14.6946 18.2221 14.7326 18.2693C14.7706 18.3166 14.7975 18.3718 14.8114 18.4309C14.8252 18.4899 14.8256 18.5513 14.8126 18.6106L14.1854 21.4516L17.5685 17.1268H14.7944C14.7265 17.1268 14.6598 17.1097 14.6002 17.0772C14.5407 17.0447 14.4903 16.9978 14.4536 16.9408C14.4169 16.8837 14.395 16.8184 14.3901 16.7507C14.3852 16.6831 14.3974 16.6153 14.4254 16.5535L15.7037 13.7404H14.3135L12.2431 18.118Z" fill="black"/>
<path d="M23.9189 4.86487H24.7298V6.48649H23.9189V4.86487Z" fill="black"/>
<path d="M17.8367 4.86487H18.6475V6.48649H17.8367V4.86487Z" fill="black"/>
<path d="M11.7581 4.86487H12.5689V6.48649H11.7581V4.86487Z" fill="black"/>
<path d="M5.4729 4.86487H6.28371V6.48649H5.4729V4.86487Z" fill="black"/>
</svg>
