<svg width="30" height="30" viewBox="0 0 30 30" fill="none" xmlns="http://www.w3.org/2000/svg">
<g clip-path="url(#clip0_5_674)">
<path d="M27.1409 0H2.85881C2.16799 0 1.60596 0.562032 1.60596 1.25285C1.60596 1.49977 1.80611 1.69987 2.05297 1.69987C2.29983 1.69987 2.49998 1.49977 2.49998 1.25285C2.49998 1.05498 2.66094 0.894025 2.85881 0.894025H27.1409C27.3388 0.894025 27.4997 1.05498 27.4997 1.25285V28.7471C27.4997 28.945 27.3388 29.106 27.1409 29.106H25.7129C25.466 29.106 25.2659 29.3061 25.2659 29.553C25.2659 29.7999 25.466 30 25.7129 30H27.1409C27.8317 30 28.3938 29.438 28.3938 28.7471V1.25285C28.3938 0.562032 27.8316 0 27.1409 0Z" fill="black"/>
<path d="M23.1133 29.1061H2.85881C2.66094 29.1061 2.49998 28.9451 2.49998 28.7472V3.34362C2.49998 3.0967 2.29983 2.89661 2.05297 2.89661C1.80611 2.89661 1.60596 3.0967 1.60596 3.34362V28.7472C1.60596 29.438 2.16799 30 2.85881 30H23.1134C23.3603 30 23.5604 29.7999 23.5604 29.553C23.5603 29.3061 23.3603 29.1061 23.1133 29.1061Z" fill="black"/>
<path d="M9.49825 5.05688H5.85863C5.61178 5.05688 5.41162 5.25698 5.41162 5.5039V9.1434C5.41162 9.39031 5.61178 9.59041 5.85863 9.59041H9.49819C9.74505 9.59041 9.9452 9.39031 9.9452 9.1434V5.5039C9.9452 5.25692 9.74511 5.05688 9.49825 5.05688ZM9.05124 8.69638H6.3057V5.95091H9.05124V8.69638Z" fill="black"/>
<path d="M9.49825 12.2413H5.85863C5.61178 12.2413 5.41162 12.4414 5.41162 12.6883V16.3279C5.41162 16.5748 5.61178 16.7749 5.85863 16.7749H9.49819C9.74505 16.7749 9.9452 16.5748 9.9452 16.3279V12.6883C9.9452 12.4414 9.74511 12.2413 9.49825 12.2413ZM9.05124 15.8809H6.3057V13.1354H9.05124V15.8809Z" fill="black"/>
<path d="M9.49825 19.4258H5.85863C5.61178 19.4258 5.41162 19.6259 5.41162 19.8728V23.5124C5.41162 23.7593 5.61178 23.9594 5.85863 23.9594H9.49819C9.74505 23.9594 9.9452 23.7593 9.9452 23.5124V19.8728C9.9452 19.6258 9.74511 19.4258 9.49825 19.4258ZM9.05124 23.0653H6.3057V20.3198H9.05124V23.0653Z" fill="black"/>
<path d="M24.5199 5.05688H12.2102C11.9633 5.05688 11.7632 5.25698 11.7632 5.5039V9.1434C11.7632 9.39031 11.9633 9.59041 12.2102 9.59041H24.5199C24.7668 9.59041 24.9669 9.39031 24.9669 9.1434V5.5039C24.967 5.25692 24.7669 5.05688 24.5199 5.05688ZM12.6572 8.69638V5.95091H24.0729V8.69638H12.6572Z" fill="black"/>
<path d="M24.5199 12.2413H12.2102C11.9633 12.2413 11.7632 12.4414 11.7632 12.6883V16.3279C11.7632 16.5748 11.9633 16.7749 12.2102 16.7749H24.5199C24.7668 16.7749 24.9669 16.5748 24.9669 16.3279V12.6883C24.967 12.4414 24.7669 12.2413 24.5199 12.2413ZM12.6572 15.8809V13.1354H24.0729V15.8809H12.6572Z" fill="black"/>
<path d="M24.5199 19.4258H12.2102C11.9633 19.4258 11.7632 19.6259 11.7632 19.8728V23.5124C11.7632 23.7593 11.9633 23.9594 12.2102 23.9594H24.5199C24.7668 23.9594 24.9669 23.7593 24.9669 23.5124V19.8728C24.967 19.6259 24.7669 19.4258 24.5199 19.4258ZM12.6572 23.0653V20.3198H24.0729V23.0653H12.6572Z" fill="black"/>
</g>
<defs>
<clipPath id="clip0_5_674">
<rect width="30" height="30" fill="white"/>
</clipPath>
</defs>
</svg>
