<svg width="30" height="30" viewBox="0 0 30 30" fill="none" xmlns="http://www.w3.org/2000/svg">
<path d="M26.0605 21.0326C26.0285 21.0291 25.996 21.0301 25.9645 21.0271C25.7271 19.2946 24.2486 18.0026 22.5 17.9996H21.5C19.7499 18.0026 18.2706 19.2969 18.035 21.0311C17.9165 21.0431 17.7995 21.0616 17.685 21.0811L16.119 18.3681L17.85 17.3681C18.0891 17.23 18.1711 16.9242 18.033 16.6851L14.533 10.6226C13.5999 9.0207 11.9241 7.9952 10.073 7.89357L7.9655 4.24957C7.51769 3.47707 6.69288 3.00095 5.8 2.99957H1.5C0.671562 2.99957 0 3.67113 0 4.49957C0 5.32801 0.671562 5.99957 1.5 5.99957H5.223C5.40163 5.99957 5.56669 6.09488 5.656 6.24957L7.02 8.61107L6.154 9.11107C5.91488 9.24913 5.83294 9.55494 5.971 9.79407L11.971 20.1866C12.1091 20.4257 12.4149 20.5076 12.654 20.3696L13.5185 19.8696L14.7575 22.0156C14.672 22.0056 14.5861 22.0003 14.5 21.9996C13.1193 21.9974 11.9982 23.1149 11.996 24.4956C11.9938 25.8762 13.1113 26.9974 14.492 26.9996C15.2803 27.0008 16.023 26.6302 16.496 25.9996H26.092C26.3629 26.7772 27.2129 27.1879 27.9905 26.9171C28.4203 26.7673 28.7583 26.4294 28.908 25.9996H29.5C29.7761 25.9996 30 25.7757 30 25.4996C29.9993 23.2309 28.3112 21.3169 26.0605 21.0326ZM21.5 18.9996H22.5C23.6876 19.0009 24.7109 19.8363 24.95 20.9996H19.05C19.2891 19.8363 20.3124 19.0009 21.5 18.9996ZM6.5215 5.74957C6.25362 5.28563 5.75869 4.99976 5.223 4.99957H1.5C1.22388 4.99957 1 4.7757 1 4.49957C1 4.22345 1.22388 3.99957 1.5 3.99957H5.8C6.336 4.00013 6.83119 4.28582 7.1 4.74957L8.94 7.93607C8.8645 7.94757 8.79 7.96607 8.717 7.98057C8.6585 7.99207 8.6 8.00207 8.542 8.01557C8.411 8.04507 8.282 8.08157 8.1535 8.12107C8.1035 8.13607 8.0565 8.14907 8.0085 8.16507C7.983 8.17357 7.9585 8.17957 7.931 8.18857L6.5215 5.74957ZM12.585 19.2546L7.085 9.72807L7.518 9.47807C7.652 9.40107 7.786 9.33407 7.921 9.27207C8.50088 9.00888 9.13069 8.87363 9.7675 8.87557C11.3744 8.87895 12.8585 9.73569 13.665 11.1256L16.915 16.7551L12.585 19.2546ZM14.5 25.9996C13.6716 25.9996 13 25.328 13 24.4996C13 23.6711 13.6716 22.9996 14.5 22.9996C14.9384 22.999 15.3546 23.1923 15.637 23.5276C15.76 23.6677 15.8536 23.8311 15.9125 24.0081C15.9715 24.1651 16.0012 24.3318 16 24.4996C15.9975 25.3269 15.3274 25.9971 14.5 25.9996ZM15.8315 21.8761L14.386 19.3721L15.25 18.8721L16.7 21.3761C16.3929 21.51 16.1016 21.6777 15.8315 21.8761ZM27.5 25.9996C27.2239 25.9996 27 25.7757 27 25.4996C27 25.2234 27.2239 24.9996 27.5 24.9996C27.7761 24.9996 28 25.2234 28 25.4996C28 25.7757 27.7761 25.9996 27.5 25.9996ZM28.9145 24.9996C28.9085 24.9826 28.8995 24.9676 28.893 24.9496C28.882 24.9216 28.869 24.8951 28.8565 24.8681C28.8306 24.8127 28.8014 24.7589 28.769 24.7071C28.754 24.6826 28.7395 24.6571 28.7225 24.6346C28.6806 24.5755 28.6344 24.5196 28.5845 24.4671C28.574 24.4561 28.565 24.4436 28.5545 24.4331C28.4927 24.372 28.4258 24.3162 28.3545 24.2666C28.3345 24.2531 28.3125 24.2416 28.292 24.2286C28.2376 24.1944 28.1812 24.1637 28.123 24.1366C28.0955 24.1241 28.0675 24.1131 28.039 24.1021C27.9803 24.0794 27.9202 24.0606 27.859 24.0461C27.8315 24.0391 27.805 24.0311 27.777 24.0261C27.5956 23.9889 27.4084 23.9889 27.227 24.0261C27.199 24.0311 27.1725 24.0391 27.145 24.0461C27.0838 24.0606 27.0237 24.0794 26.965 24.1021C26.9365 24.1131 26.909 24.1241 26.8815 24.1366C26.8231 24.1636 26.7664 24.1943 26.712 24.2286C26.6915 24.2416 26.6695 24.2531 26.6495 24.2666C26.5782 24.3162 26.5113 24.372 26.4495 24.4331C26.439 24.4436 26.43 24.4561 26.4195 24.4671C26.3696 24.5196 26.3234 24.5755 26.2815 24.6346C26.265 24.6581 26.25 24.6846 26.235 24.7071C26.2026 24.7589 26.1734 24.8127 26.1475 24.8681C26.1345 24.8951 26.122 24.9216 26.111 24.9496C26.1045 24.9661 26.0955 24.9811 26.0895 24.9996H16.95C16.9525 24.9811 16.95 24.9621 16.9545 24.9436C16.9831 24.7972 16.9984 24.6486 17 24.4996C17.0018 24.216 16.9521 23.9344 16.8535 23.6686C16.7541 23.3784 16.5996 23.1101 16.3985 22.8786C16.369 22.8436 16.3385 22.8096 16.307 22.7761C16.3215 22.7646 16.334 22.7511 16.3485 22.7401C16.3835 22.7131 16.4195 22.6901 16.455 22.6631C16.531 22.6088 16.6087 22.5572 16.688 22.5086C16.7285 22.4841 16.7695 22.4586 16.811 22.4376C16.8935 22.3921 16.978 22.3511 17.064 22.3121C17.103 22.2946 17.141 22.2756 17.181 22.2621C17.3006 22.2128 17.4228 22.1703 17.547 22.1346C17.553 22.1346 17.5585 22.1301 17.5645 22.1286C17.869 22.0431 18.1838 21.9997 18.5 21.9996H25.5C25.6466 21.9993 25.793 22.008 25.9385 22.0256C27.5016 22.2229 28.7401 23.4402 28.9645 24.9996H28.9145Z" fill="black"/>
<path d="M15.3015 15.9556H15.3L12.8 11.6251C12.174 10.5447 11.0211 9.87831 9.77246 9.87506C9.49634 9.87506 9.27246 10.0989 9.27246 10.3751C9.27246 10.6512 9.49634 10.8751 9.77246 10.8751C10.6643 10.8775 11.4877 11.3535 11.935 12.1251L14.435 16.4556C14.5243 16.6104 14.6896 16.7058 14.8685 16.7056C15.1446 16.7056 15.3685 16.4817 15.3685 16.2056C15.3685 16.1178 15.3453 16.0316 15.3015 15.9556Z" fill="black"/>
<path d="M14.5 25.4996C15.0523 25.4996 15.5 25.0519 15.5 24.4996C15.5 23.9473 15.0523 23.4996 14.5 23.4996C13.9477 23.4996 13.5 23.9473 13.5 24.4996C13.5 25.0519 13.9477 25.4996 14.5 25.4996Z" fill="black"/>
<path d="M25 23.4996H18C17.7239 23.4996 17.5 23.7235 17.5 23.9996C17.5 24.2757 17.7239 24.4996 18 24.4996H25C25.2761 24.4996 25.5 24.2757 25.5 23.9996C25.5 23.7235 25.2761 23.4996 25 23.4996Z" fill="black"/>
</svg>
