<svg width="30" height="30" viewBox="0 0 30 30" fill="none" xmlns="http://www.w3.org/2000/svg">
<path d="M23.9438 6.5625H22.9688V2.70469C22.9675 2.3607 22.8303 2.03116 22.5871 1.78792C22.3439 1.54468 22.0143 1.40749 21.6703 1.40625H21.4547C21.1107 1.40749 20.7812 1.54468 20.5379 1.78792C20.2947 2.03116 20.1575 2.3607 20.1563 2.70469V6.5625H16.4063V2.70469C16.405 2.3607 16.2678 2.03116 16.0246 1.78792C15.7814 1.54468 15.4518 1.40749 15.1078 1.40625H14.8922C14.5482 1.40749 14.2187 1.54468 13.9754 1.78792C13.7322 2.03116 13.595 2.3607 13.5938 2.70469V6.5625H12.6188C12.2557 6.5625 11.9076 6.70671 11.6509 6.9634C11.3942 7.22009 11.25 7.56823 11.25 7.93125V8.00625C11.2504 8.29308 11.3412 8.57249 11.5095 8.80475C11.6778 9.03701 11.9151 9.2103 12.1875 9.3V15.4969C12.1927 16.6558 12.5557 17.7848 13.227 18.7296C13.8982 19.6743 14.8449 20.3887 15.9375 20.775V21.5625C15.9385 22.102 16.1255 22.6246 16.4671 23.0422C16.8087 23.4598 17.2839 23.7468 17.8125 23.8547C17.7087 24.8998 17.2188 25.8685 16.4386 26.5716C15.6584 27.2746 14.644 27.6614 13.5938 27.6562H11.25C10.1311 27.6562 9.05807 27.2118 8.2669 26.4206C7.47573 25.6294 7.03126 24.5564 7.03126 23.4375V21.9656C7.47313 21.8515 7.85822 21.5802 8.11435 21.2025C8.37048 20.8248 8.48007 20.3666 8.42256 19.9139C8.36506 19.4612 8.14442 19.045 7.80199 18.7433C7.45957 18.4416 7.01887 18.2752 6.56251 18.2752C6.10614 18.2752 5.66545 18.4416 5.32302 18.7433C4.9806 19.045 4.75995 19.4612 4.70245 19.9139C4.64495 20.3666 4.75453 20.8248 5.01066 21.2025C5.26679 21.5802 5.65188 21.8515 6.09376 21.9656V23.4375C6.09376 24.805 6.637 26.1165 7.60399 27.0835C8.57097 28.0505 9.88249 28.5937 11.25 28.5937H13.5938C14.8912 28.5981 16.1427 28.1131 17.0984 27.2356C18.0541 26.3581 18.6439 25.1525 18.75 23.8594C19.2794 23.7513 19.7552 23.4637 20.0969 23.0451C20.4386 22.6266 20.6251 22.1028 20.625 21.5625V20.775C21.7177 20.3887 22.6643 19.6743 23.3356 18.7296C24.0068 17.7848 24.3698 16.6558 24.375 15.4969V12.6562C24.375 12.5319 24.3256 12.4127 24.2377 12.3248C24.1498 12.2369 24.0306 12.1875 23.9063 12.1875C23.7819 12.1875 23.6627 12.2369 23.5748 12.3248C23.4869 12.4127 23.4375 12.5319 23.4375 12.6562V15.4969C23.4301 16.7303 22.9369 17.9112 22.0647 18.7834C21.1925 19.6556 20.0116 20.1489 18.7781 20.1562H17.7844C16.5509 20.1489 15.3701 19.6556 14.4979 18.7834C13.6257 17.9112 13.1324 16.7303 13.125 15.4969V9.375H14.5313C14.6556 9.375 14.7748 9.32561 14.8627 9.23771C14.9506 9.1498 15 9.03057 15 8.90625C15 8.78193 14.9506 8.6627 14.8627 8.57479C14.7748 8.48689 14.6556 8.4375 14.5313 8.4375H12.6188C12.5044 8.4375 12.3947 8.39206 12.3138 8.31119C12.2329 8.23031 12.1875 8.12062 12.1875 8.00625V7.93125C12.1875 7.81687 12.2329 7.70719 12.3138 7.62631C12.3947 7.54543 12.5044 7.5 12.6188 7.5H23.9438C24.0004 7.5 24.0565 7.51115 24.1088 7.53283C24.1611 7.5545 24.2087 7.58627 24.2487 7.62631C24.2888 7.66636 24.3205 7.7139 24.3422 7.76622C24.3639 7.81854 24.375 7.87462 24.375 7.93125V8.00625C24.375 8.06288 24.3639 8.11896 24.3422 8.17128C24.3205 8.2236 24.2888 8.27114 24.2487 8.31119C24.2087 8.35123 24.1611 8.383 24.1088 8.40467C24.0565 8.42635 24.0004 8.4375 23.9438 8.4375H16.4063C16.2819 8.4375 16.1627 8.48689 16.0748 8.57479C15.9869 8.6627 15.9375 8.78193 15.9375 8.90625C15.9375 9.03057 15.9869 9.1498 16.0748 9.23771C16.1627 9.32561 16.2819 9.375 16.4063 9.375H23.4375V10.7812C23.4375 10.9056 23.4869 11.0248 23.5748 11.1127C23.6627 11.2006 23.7819 11.25 23.9063 11.25C24.0306 11.25 24.1498 11.2006 24.2377 11.1127C24.3256 11.0248 24.375 10.9056 24.375 10.7812V9.3C24.6475 9.2103 24.8847 9.03701 25.053 8.80475C25.2213 8.57249 25.3121 8.29308 25.3125 8.00625V7.93125C25.3125 7.56823 25.1683 7.22009 24.9116 6.9634C24.6549 6.70671 24.3068 6.5625 23.9438 6.5625ZM5.62501 20.1562C5.62501 19.9708 5.67999 19.7896 5.783 19.6354C5.88602 19.4812 6.03243 19.3611 6.20374 19.2901C6.37505 19.2192 6.56355 19.2006 6.7454 19.2368C6.92726 19.2729 7.09431 19.3622 7.22542 19.4933C7.35653 19.6244 7.44582 19.7915 7.48199 19.9734C7.51817 20.1552 7.4996 20.3437 7.42864 20.515C7.35769 20.6863 7.23752 20.8327 7.08335 20.9358C6.92918 21.0388 6.74793 21.0937 6.56251 21.0937C6.31387 21.0937 6.07541 20.995 5.89959 20.8192C5.72378 20.6433 5.62501 20.4049 5.62501 20.1562ZM18.7781 21.0937H19.6875V21.5625C19.6875 21.9355 19.5394 22.2931 19.2756 22.5569C19.0119 22.8206 18.6542 22.9687 18.2813 22.9687C17.9083 22.9687 17.5506 22.8206 17.2869 22.5569C17.0232 22.2931 16.875 21.9355 16.875 21.5625V21.0937H18.7781ZM14.5313 6.5625V2.70469C14.5313 2.60896 14.5693 2.51715 14.637 2.44947C14.7047 2.38178 14.7965 2.34375 14.8922 2.34375H15.1078C15.2036 2.34375 15.2954 2.38178 15.363 2.44947C15.4307 2.51715 15.4688 2.60896 15.4688 2.70469V6.5625H14.5313ZM21.0938 6.5625V2.70469C21.0938 2.60896 21.1318 2.51715 21.1995 2.44947C21.2672 2.38178 21.359 2.34375 21.4547 2.34375H21.6703C21.7177 2.34375 21.7647 2.35309 21.8085 2.37122C21.8522 2.38936 21.892 2.41595 21.9256 2.44947C21.9591 2.48298 21.9857 2.52277 22.0038 2.56656C22.0219 2.61035 22.0313 2.65729 22.0313 2.70469V6.5625H21.0938ZM15.8297 18.4172C15.906 18.497 16.008 18.5474 16.1177 18.5594C16.2275 18.5714 16.338 18.5443 16.4297 18.4828L20.8828 15.5156C20.9442 15.4751 20.9952 15.4206 21.0316 15.3567C21.0681 15.2928 21.089 15.2212 21.0926 15.1478C21.0963 15.0743 21.0826 15.001 21.0527 14.9338C21.0227 14.8666 20.9774 14.8074 20.9203 14.7609L19.5797 13.6641L20.5172 11.1281C20.5541 11.0296 20.5568 10.9215 20.5249 10.8213C20.4929 10.721 20.4282 10.6345 20.341 10.5755C20.2539 10.5165 20.1495 10.4885 20.0446 10.4961C19.9396 10.5037 19.8403 10.5463 19.7625 10.6172L16.4813 13.6594C16.4306 13.7034 16.39 13.7577 16.3621 13.8188C16.3343 13.8799 16.3199 13.9462 16.3199 14.0133C16.3199 14.0804 16.3343 14.1467 16.3621 14.2078C16.39 14.2688 16.4306 14.3232 16.4813 14.3672L17.6485 15.3047L15.7969 17.8125C15.73 17.9009 15.6965 18.0101 15.7025 18.1209C15.7085 18.2316 15.7536 18.3366 15.8297 18.4172ZM17.5078 13.9875L18.961 12.6562L18.5813 13.6641C18.5462 13.7559 18.5409 13.8565 18.5661 13.9516C18.5913 14.0467 18.6458 14.1314 18.7219 14.1937L19.8328 15.1031L18.1875 16.1906L18.6844 15.525C18.7562 15.4282 18.788 15.3075 18.7731 15.1879C18.7583 15.0684 18.698 14.9591 18.6047 14.8828L17.5078 13.9875Z" fill="black"/>
</svg>
