<svg width="30" height="30" viewBox="0 0 30 30" fill="none" xmlns="http://www.w3.org/2000/svg">
<g clip-path="url(#clip0_4_273)">
<path d="M13.25 22.5C11.8716 22.5 10.75 23.6216 10.75 25C10.75 26.3784 11.8716 27.5 13.25 27.5C14.6284 27.5 15.75 26.3784 15.75 25C15.75 23.6216 14.6284 22.5 13.25 22.5ZM13.25 26.5C12.4229 26.5 11.75 25.8272 11.75 25C11.75 24.1729 12.4229 23.5 13.25 23.5C14.0772 23.5 14.75 24.1729 14.75 25C14.75 25.8272 14.0772 26.5 13.25 26.5Z" fill="black"/>
<path d="M27.2501 25H26.25V7.5C26.25 5.50195 25.4703 3.61863 24.0528 2.1958C22.6314 0.779766 20.7481 0 18.75 0C15.1884 0 12.1105 2.55158 11.4071 6H10.25C4.73611 6 0.25 10.4861 0.25 16V26.5C0.25 27.8784 1.3716 29 2.75002 29H10.2627C11.0973 29.6249 12.1294 30 13.25 30C16.0071 30 18.25 27.7571 18.25 25C18.25 23.8794 17.8749 22.8473 17.25 22.0127V8.50002C17.25 7.21787 16.276 6.17027 15.0312 6.02848C15.6273 4.53387 17.1042 3.50004 18.75 3.50004C19.8208 3.50004 20.8242 3.91652 21.5776 4.67484C22.3335 5.42584 22.7499 6.42926 22.7499 7.50006V25.0001H21.75C20.3716 25.0001 19.25 26.1217 19.25 27.5001V29.5001C19.25 29.7762 19.4739 30.0001 19.75 30.0001H29.25C29.5262 30.0001 29.75 29.7762 29.75 29.5001V27.5001C29.75 26.1216 28.6285 25 27.2501 25ZM1.25002 16C1.25002 11.2061 5.02041 7.28713 9.75004 7.02533V15.5C9.75004 16.8784 8.62844 18 7.25002 18H1.25002V16ZM17.25 25C17.25 27.2056 15.4556 29 13.25 29C11.0444 29 9.25 27.2056 9.25 25C9.25 22.7944 11.0444 21 13.25 21C15.4556 21 17.25 22.7944 17.25 25ZM16.25 8.50002V21.0095C15.4132 20.3788 14.3763 20 13.25 20C10.493 20 8.25004 22.2429 8.25004 25C8.25004 26.1262 8.62885 27.1631 9.25955 28H2.75002C1.92285 28 1.25002 27.3271 1.25002 26.5V19H7.25002C9.17992 19 10.75 17.4299 10.75 15.5V7.00002H14.75C15.5772 7.00002 16.25 7.67285 16.25 8.50002ZM22.2847 3.96779C21.3445 3.02127 20.0891 2.50002 18.75 2.50002C16.5708 2.50002 14.6263 3.94998 13.9792 6H12.4239C13.1085 3.1125 15.7314 1.00002 18.75 1.00002C20.4817 1.00002 22.1143 1.67631 23.3457 2.90285C24.5737 4.13578 25.25 5.76832 25.25 7.5V20H23.75V7.5C23.75 6.1609 23.2288 4.90553 22.2847 3.96779ZM25.25 21V25H23.75V21H25.25ZM28.7501 29H20.25V27.5C20.25 26.6728 20.9229 26 21.75 26H27.2501C28.0772 26 28.7501 26.6728 28.7501 27.5V29Z" fill="black"/>
</g>
<defs>
<clipPath id="clip0_4_273">
<rect width="30" height="30" fill="white"/>
</clipPath>
</defs>
</svg>
