<svg width="30" height="30" viewBox="0 0 30 30" fill="none" xmlns="http://www.w3.org/2000/svg">
<path d="M18.2812 15C18.2812 13.1906 16.8094 11.7188 15 11.7188C13.1906 11.7188 11.7188 13.1906 11.7188 15C11.7188 16.8094 13.1906 18.2812 15 18.2812C16.8094 18.2812 18.2812 16.8094 18.2812 15ZM15 17.3438C13.7077 17.3438 12.6562 16.2923 12.6562 15C12.6562 13.7077 13.7077 12.6562 15 12.6562C16.2923 12.6562 17.3438 13.7077 17.3438 15C17.3438 16.2923 16.2923 17.3438 15 17.3438Z" fill="black"/>
<path d="M15 13.5938C14.7413 13.5938 14.5312 13.8038 14.5312 14.0625C14.5312 14.3213 14.7413 14.5312 15 14.5312C15.2583 14.5312 15.4688 14.7417 15.4688 15C15.4688 15.2583 15.2583 15.4688 15 15.4688C14.7413 15.4688 14.5312 15.6788 14.5312 15.9375C14.5312 16.1962 14.7413 16.4062 15 16.4062C15.7753 16.4062 16.4062 15.7753 16.4062 15C16.4062 14.2247 15.7753 13.5938 15 13.5938Z" fill="black"/>
<path d="M9.3648 8.70235C9.45292 8.79047 9.57199 8.83969 9.69621 8.83969H10.165L12.5036 11.1778C12.5936 11.2678 12.7136 11.3152 12.8354 11.3152C12.909 11.3152 12.9836 11.2978 13.0525 11.2617C13.2789 11.1431 13.5086 11.047 13.735 10.9758C13.93 10.9139 14.0626 10.733 14.0626 10.5286V7.22532L14.394 6.89391C14.4817 6.80579 14.5314 6.68673 14.5314 6.56251V2.3822C14.5314 2.25189 14.477 2.12767 14.3818 2.03907C14.2862 1.95001 14.1573 1.90267 14.0284 1.91485C11.2107 2.12204 8.5862 3.21142 6.43886 5.06392C6.34042 5.14923 6.28136 5.27157 6.27667 5.40188C6.27198 5.5322 6.32167 5.65829 6.41401 5.75063L9.3648 8.70235ZM13.5939 2.89689V6.36845L13.2625 6.69985C13.1743 6.78798 13.1251 6.90704 13.1251 7.03126V10.1981C13.0604 10.2239 12.9962 10.2511 12.9315 10.2797L10.6909 8.03954C10.6028 7.95141 10.4837 7.90219 10.3595 7.90219H9.89074L7.44058 5.45157C9.22652 4.03173 11.3354 3.1561 13.5939 2.89689Z" fill="black"/>
<path d="M15.9375 7.2253V10.5286C15.9375 10.7334 16.0702 10.9139 16.2652 10.9758C16.4916 11.047 16.7208 11.1431 16.9472 11.2617C17.0156 11.2978 17.0902 11.3151 17.1642 11.3151C17.2856 11.3151 17.4056 11.2678 17.4961 11.1778L19.8347 8.83968H20.3034C20.4277 8.83968 20.5467 8.79046 20.6344 8.70233L23.5866 5.75014C23.6789 5.65827 23.7286 5.53171 23.7234 5.40139C23.7188 5.27108 23.6597 5.14874 23.5612 5.06343C21.4139 3.21092 18.7898 2.12202 15.9722 1.91483C15.8433 1.90452 15.7144 1.94999 15.6187 2.03905C15.5231 2.12764 15.4688 2.25186 15.4688 2.38217V6.56249C15.4688 6.68671 15.518 6.80577 15.6061 6.89389L15.9375 7.2253ZM16.4062 2.89686C18.6647 3.15608 20.7736 4.03171 22.5595 5.45108L20.1084 7.90218H19.6397C19.5155 7.90218 19.3964 7.95139 19.3088 8.03952L17.0686 10.2797C17.0044 10.2511 16.9402 10.2239 16.8755 10.1986V7.03124C16.8755 6.90702 16.8258 6.78796 16.7381 6.69983L16.4062 6.36843V2.89686Z" fill="black"/>
<path d="M21.1602 9.69612V10.1658L18.8226 12.5035C18.6772 12.6483 18.6435 12.871 18.7386 13.0524C18.8568 13.2783 18.9533 13.508 19.0246 13.7349C19.086 13.9299 19.2665 14.0625 19.4713 14.0625H22.7741L23.106 14.3944C23.1941 14.4821 23.3132 14.5313 23.4374 14.5313H27.6177C27.748 14.5313 27.8722 14.4769 27.9608 14.3818C28.0494 14.2861 28.0944 14.1582 28.0851 14.0283C27.8779 11.2107 26.7885 8.58612 24.9355 6.43831C24.8502 6.33987 24.7279 6.28081 24.5976 6.27612C24.4644 6.27096 24.3411 6.32112 24.2488 6.41346L21.2971 9.36565C21.2094 9.45331 21.1602 9.5719 21.1602 9.69612ZM22.0972 10.3603V9.89065L24.5483 7.43956C25.9682 9.22597 26.8438 11.3349 27.103 13.5933H23.6315L23.2996 13.2614C23.2115 13.1738 23.0924 13.125 22.9682 13.125H19.8018C19.776 13.0603 19.7488 12.9957 19.7202 12.931L21.9594 10.6913C22.0476 10.6036 22.0972 10.4846 22.0972 10.3603Z" fill="black"/>
<path d="M20.6344 21.2977C20.5467 21.2096 20.4277 21.1603 20.3034 21.1603H19.8342L17.4961 18.8222C17.3513 18.6769 17.1286 18.6427 16.9472 18.7383C16.7212 18.8564 16.4916 18.953 16.2652 19.0242C16.0702 19.0861 15.9375 19.2671 15.9375 19.4714V22.7747L15.6061 23.1061C15.518 23.1938 15.4688 23.3133 15.4688 23.4375V27.6178C15.4688 27.7481 15.5231 27.8724 15.6183 27.9609C15.7055 28.042 15.8194 28.0866 15.9375 28.0866C15.9487 28.0866 15.9605 28.0861 15.9717 28.0852C18.7898 27.878 21.4144 26.7886 23.5612 24.9356C23.6602 24.8508 23.7188 24.7285 23.7234 24.5981C23.7281 24.4678 23.6784 24.3417 23.5866 24.2494L20.6344 21.2977ZM16.4062 27.1031V23.6316L16.7377 23.3002C16.8253 23.2125 16.875 23.093 16.875 22.9688V19.8019C16.9397 19.7761 17.0044 19.7494 17.0686 19.7208L19.3083 21.9605C19.3964 22.0486 19.515 22.0978 19.6392 22.0978H20.1084L22.5595 24.5485C20.7741 25.9678 18.6647 26.8439 16.4062 27.1031Z" fill="black"/>
<path d="M27.6178 15.4688H23.4375C23.3133 15.4688 23.1942 15.518 23.1061 15.6056L22.7737 15.9375H19.4714C19.2665 15.9375 19.0861 16.0702 19.0242 16.2652C18.9529 16.4916 18.8564 16.7212 18.7378 16.9481C18.6426 17.1295 18.6769 17.3517 18.8217 17.4966L21.1598 19.8347V20.3034C21.1598 20.4277 21.209 20.5467 21.2972 20.6348L24.2489 23.587C24.337 23.6752 24.4561 23.7244 24.5803 23.7244H24.5976C24.7279 23.7197 24.8503 23.6606 24.9356 23.5622C26.7881 21.4148 27.877 18.7903 28.0847 15.9722C28.094 15.8423 28.0495 15.7144 27.9604 15.6187C27.8723 15.5227 27.7481 15.4688 27.6178 15.4688ZM24.5489 22.5595L22.0978 20.1084V19.6397C22.0978 19.5155 22.0486 19.3964 21.9604 19.3083L19.7203 17.0686C19.7494 17.0039 19.7761 16.9392 19.8019 16.8745H22.9678C23.092 16.8745 23.2111 16.8253 23.2992 16.7377L23.6315 16.4062H27.1031C26.8439 18.6642 25.9683 20.7736 24.5489 22.5595Z" fill="black"/>
<path d="M15 0C6.72891 0 0 6.72891 0 15C0 23.2711 6.72891 30 15 30C23.2711 30 30 23.2711 30 15C30 6.72891 23.2711 0 15 0ZM15 29.0625C7.24594 29.0625 0.9375 22.7541 0.9375 15C0.9375 7.24594 7.24594 0.9375 15 0.9375C22.7541 0.9375 29.0625 7.24594 29.0625 15C29.0625 22.7541 22.7541 29.0625 15 29.0625Z" fill="black"/>
<path d="M14.0626 22.7747V19.4714C14.0626 19.2666 13.9299 19.0861 13.7349 19.0242C13.5085 18.953 13.2788 18.8564 13.052 18.7378C12.8701 18.6431 12.6479 18.6764 12.5035 18.8217L10.1654 21.1603H9.69665C9.57243 21.1603 9.4529 21.2095 9.36525 21.2977L6.41353 24.2494C6.32118 24.3413 6.2715 24.4678 6.27618 24.5981C6.28087 24.7284 6.33993 24.8508 6.43837 24.9361C8.58571 26.7891 11.2107 27.878 14.0284 28.0856C14.0396 28.0866 14.0513 28.087 14.0626 28.087C14.1802 28.087 14.2946 28.0425 14.3818 27.9614C14.477 27.8723 14.5313 27.7481 14.5313 27.6178V23.4375C14.5313 23.3133 14.4817 23.1938 14.394 23.1061L14.0626 22.7747ZM13.5938 27.1031C11.3354 26.8439 9.22603 25.9683 7.43962 24.5484L9.88978 22.0983H10.359C10.4832 22.0983 10.6023 22.0491 10.6904 21.961L12.9306 19.7203C12.9952 19.7494 13.0599 19.7761 13.1246 19.8019V22.9688C13.1246 23.093 13.1738 23.2125 13.262 23.3002L13.5938 23.6316V27.1031Z" fill="black"/>
<path d="M2.38223 14.5312H6.56161C6.68583 14.5312 6.80536 14.482 6.89301 14.3939L7.22442 14.0625H10.5286C10.7335 14.0625 10.9144 13.9298 10.9758 13.7344C11.0471 13.5084 11.1432 13.2792 11.2618 13.0528C11.3569 12.8714 11.3232 12.6487 11.1779 12.5039L8.83927 10.1653V9.69655C8.83927 9.57233 8.79005 9.4528 8.70192 9.36515L5.7502 6.41343C5.65786 6.32109 5.53317 6.27046 5.40145 6.27656C5.27114 6.28124 5.1488 6.34031 5.06348 6.43874C3.21098 8.58655 2.12208 11.2106 1.91442 14.0283C1.90458 14.1581 1.94958 14.2861 2.03864 14.3817C2.1277 14.4769 2.25192 14.5312 2.38223 14.5312ZM5.45114 7.43999L7.90176 9.89061V10.3594C7.90176 10.4836 7.95145 10.6031 8.03911 10.6908L10.2793 12.9314C10.2507 12.9956 10.2235 13.0603 10.1982 13.125H7.03036C6.90614 13.125 6.78708 13.1742 6.69895 13.2623L6.36755 13.5937H2.89692C3.15614 11.3353 4.03176 9.2264 5.45114 7.43999Z" fill="black"/>
<path d="M8.8387 20.3034V19.8347L11.1778 17.4956C11.3226 17.3508 11.3568 17.1286 11.2617 16.9472C11.1431 16.7208 11.047 16.4916 10.9757 16.2652C10.9139 16.0702 10.7329 15.9375 10.5285 15.9375H7.22479L6.89338 15.6061C6.80573 15.518 6.6862 15.4688 6.56198 15.4688H2.38214C2.25182 15.4688 2.12761 15.5231 2.03901 15.6183C1.95042 15.7139 1.90542 15.8419 1.91479 15.9717C2.12198 18.7894 3.21136 21.4139 5.06385 23.5613C5.14917 23.6597 5.27151 23.7188 5.40182 23.7234H5.41917C5.54339 23.7234 5.66245 23.6742 5.75057 23.5861L8.70182 20.6348C8.78948 20.5472 8.8387 20.4281 8.8387 20.3034ZM7.9012 20.1098L5.45104 22.5595C4.03167 20.7731 3.15604 18.6642 2.89682 16.4063H6.36792L6.69932 16.7377C6.78698 16.8253 6.90651 16.875 7.03073 16.875H10.1981C10.2234 16.9397 10.2506 17.0039 10.2792 17.0681L8.03807 19.3092C7.94995 19.3973 7.90073 19.5164 7.90073 19.6411L7.9012 20.1098Z" fill="black"/>
</svg>
