<svg width="30" height="30" viewBox="0 0 30 30" fill="none" xmlns="http://www.w3.org/2000/svg">
<g clip-path="url(#clip0_5_386)">
<path d="M15.0024 6.20728C12.146 6.20728 9.83008 8.52295 9.83008 11.3796C9.83008 14.2362 12.146 16.5519 15.0024 16.5519C17.8591 16.5519 20.1747 14.2362 20.1747 11.3796C20.1717 8.52446 17.8578 6.21056 15.0024 6.20728ZM15.0024 15.5175C12.7173 15.5175 10.8645 13.665 10.8645 11.3796C10.8645 9.09448 12.7173 7.24174 15.0024 7.24174C17.2878 7.24174 19.1403 9.09448 19.1403 11.3796C19.1377 13.664 17.2868 15.5149 15.0024 15.5175Z" fill="black"/>
<path d="M22.2435 11.3796C22.2435 7.38041 19.0017 4.13837 15.0022 4.13837C11.003 4.13837 7.76099 7.38041 7.76099 11.3796C7.76099 15.3788 11.003 18.6209 15.0022 18.6209C18.9999 18.6166 22.2392 15.3771 22.2435 11.3796ZM15.0022 17.5864C11.5743 17.5864 8.79545 14.8075 8.79545 11.3796C8.79545 7.95169 11.5743 5.17283 15.0022 5.17283C18.4302 5.17283 21.209 7.95169 21.209 11.3796C21.2055 14.806 18.4286 17.5829 15.0022 17.5864Z" fill="black"/>
<path d="M23.7952 20.6898H21.5346C22.0561 20.3228 22.5458 19.9127 22.9986 19.4634C23.0173 19.4475 23.0345 19.4303 23.0504 19.4119C24.0798 18.3734 24.9011 17.148 25.4706 15.8016C25.4936 15.7614 25.511 15.7185 25.5224 15.6738C26.0811 14.3226 26.3728 12.8762 26.3813 11.4142V11.4107C26.3813 11.4003 26.3813 11.39 26.3813 11.3796C26.3824 9.89787 26.0922 8.43028 25.5275 7.06017L25.5239 7.05032C24.9562 5.67946 24.127 4.43209 23.0825 3.37818C23.0701 3.36353 23.0567 3.34964 23.0428 3.33676C19.802 0.0879008 14.9247 -0.891758 10.6808 0.853898H10.6762C9.30234 1.42139 8.0527 2.25153 6.99728 3.29787C6.98314 3.30949 6.96975 3.32211 6.95738 3.33575C3.71281 6.56163 2.73113 11.4243 4.46997 15.6561C4.48158 15.6993 4.49901 15.7407 4.52174 15.7794C5.08266 17.1151 5.89185 18.3327 6.90611 19.3672C6.93995 19.4121 6.98086 19.4513 7.02708 19.4831C7.47435 19.9245 7.95749 20.3281 8.47119 20.6898H6.20931C4.78187 20.6915 3.62492 21.8485 3.62315 23.2759V27.4138C3.62492 28.8415 4.78187 29.9982 6.20931 29.9999H23.7952C25.2229 29.9982 26.3798 28.8415 26.3813 27.4138V23.2759C26.3798 21.8485 25.2229 20.6915 23.7952 20.6898ZM4.65761 24.8276H25.3469V25.3449H4.65761V24.8276ZM8.32546 19.2712L8.58408 19.1853C8.85532 19.0949 9.00231 18.8017 8.91189 18.5304C8.82173 18.2589 8.52852 18.1122 8.25702 18.2024L7.47663 18.461C6.81797 17.7586 6.25982 16.9681 5.81835 16.1122L6.08581 16.1309H6.12294C6.40857 16.141 6.64825 15.9175 6.65835 15.6319C6.66845 15.3462 6.44494 15.1066 6.1593 15.0965L5.33901 15.0381C4.99503 14.1365 4.7796 13.1914 4.69853 12.23L4.94527 12.3537C5.20086 12.4813 5.51175 12.3775 5.63955 12.1219C5.76709 11.8663 5.66329 11.5554 5.4077 11.4278L4.67378 11.0692C4.69954 10.1045 4.86067 9.14804 5.15262 8.22824L5.33421 8.4376C5.5216 8.65354 5.84841 8.67652 6.06434 8.48913C6.28002 8.30173 6.30326 7.97492 6.11586 7.75899L5.57792 7.13846C5.97393 6.26084 6.49015 5.44256 7.11194 4.70737L7.1968 4.96245C7.28721 5.2337 7.58043 5.38043 7.85192 5.29002C8.12317 5.1996 8.2699 4.90639 8.17949 4.63489L7.92087 3.86182C8.62196 3.19988 9.41195 2.63921 10.2676 2.19522L10.2484 2.46368C10.2282 2.74831 10.4426 2.99556 10.7275 3.01602H10.7646C11.0366 3.01678 11.2627 2.80665 11.2819 2.53541L11.34 1.71839C12.2398 1.37441 13.1836 1.15898 14.1438 1.07842L14.0221 1.32112C13.8945 1.57671 13.9983 1.8876 14.2539 2.01514C14.5095 2.14294 14.8204 2.03914 14.9479 1.78355L15.3126 1.05114C16.2774 1.07665 17.2338 1.23803 18.1539 1.52999L17.947 1.71157C17.7465 1.90175 17.7311 2.21592 17.9119 2.42504C18.0928 2.6339 18.4059 2.66396 18.6229 2.49323L19.2436 1.95529C20.1213 2.35129 20.9396 2.86752 21.6747 3.4893L21.4202 3.57416C21.1487 3.66432 21.0019 3.95754 21.0923 4.22904C21.1825 4.50028 21.4757 4.64701 21.747 4.55685L22.5198 4.29824C23.182 4.99907 23.7432 5.78907 24.1869 6.64497L23.9184 6.62578C23.7272 6.60002 23.5378 6.6826 23.4265 6.8402C23.3153 6.99779 23.3012 7.20413 23.3896 7.37536C23.4777 7.54684 23.6543 7.65469 23.847 7.6557L24.6642 7.71353C25.0082 8.61439 25.2234 9.5592 25.3034 10.5199L25.061 10.3984C24.8054 10.2709 24.4945 10.3744 24.3667 10.6303C24.2392 10.8859 24.343 11.1968 24.5986 11.3243L25.3355 11.6925C25.306 12.655 25.1413 13.6084 24.8463 14.5249L24.6705 14.3221C24.4831 14.1064 24.1563 14.0832 23.9407 14.2706C23.7247 14.4577 23.7017 14.7846 23.8889 15.0002L24.4288 15.621C24.0318 16.4991 23.5154 17.3182 22.8943 18.0551L22.808 17.7965C22.7175 17.525 22.4243 17.3783 22.1528 17.4687C21.8813 17.5591 21.7348 17.8526 21.8253 18.1238L22.0839 18.9045C21.3252 19.627 20.4605 20.2291 19.5194 20.6898H10.4901C9.71148 20.3102 8.98413 19.8336 8.32546 19.2712ZM6.20931 21.7242H6.92429L6.78084 22.0104C6.6533 22.266 6.7571 22.5769 7.01269 22.7044C7.26827 22.8322 7.57916 22.7284 7.70671 22.4728L8.08074 21.7242H9.51045L9.367 22.0104C9.23946 22.266 9.34326 22.5769 9.59884 22.7044C9.85443 22.8322 10.1653 22.7284 10.2929 22.4728L10.6669 21.7242H12.0966L11.9532 22.0104C11.8256 22.266 11.9294 22.5769 12.185 22.7044C12.4406 22.8322 12.7515 22.7284 12.879 22.4728L13.2531 21.7242H14.6828L14.5393 22.0104C14.4118 22.266 14.5156 22.5769 14.7712 22.7044C15.0267 22.8322 15.3376 22.7284 15.4652 22.4728L15.8392 21.7242H17.2689L17.1255 22.0104C16.9979 22.266 17.1017 22.5769 17.3573 22.7044C17.6129 22.8322 17.9238 22.7284 18.0513 22.4728L18.4254 21.7242H19.8551L19.7116 22.0104C19.5841 22.266 19.6879 22.5769 19.9435 22.7044C20.1991 22.8322 20.51 22.7284 20.6375 22.4728L21.0115 21.7242H22.4412L22.2978 22.0104C22.1702 22.266 22.274 22.5769 22.5296 22.7044C22.7852 22.8322 23.0961 22.7284 23.2237 22.4728L23.5977 21.7242H23.7952C24.6524 21.7242 25.3469 22.419 25.3469 23.2759V23.7932H4.65761V23.2759C4.65761 22.419 5.35239 21.7242 6.20931 21.7242ZM23.7952 28.9655H23.5977L23.2264 28.2172C23.0986 27.9613 22.788 27.8578 22.5322 27.9853C22.2766 28.1131 22.1728 28.4238 22.3006 28.6796L22.4438 28.9655H21.0115L20.6403 28.2172C20.5125 27.9613 20.2018 27.8578 19.946 27.9853C19.6904 28.1131 19.5866 28.4238 19.7144 28.6796L19.8576 28.9655H18.4254L18.0541 28.2172C17.9263 27.9613 17.6157 27.8578 17.3598 27.9853C17.1043 28.1131 17.0005 28.4238 17.1283 28.6796L17.2715 28.9655H15.8392L15.468 28.2172C15.3402 27.9613 15.0295 27.8578 14.7737 27.9853C14.5181 28.1131 14.4143 28.4238 14.5421 28.6796L14.6853 28.9655H13.2531L12.8818 28.2172C12.754 27.9613 12.4434 27.8578 12.1875 27.9853C11.9319 28.1131 11.8281 28.4238 11.9559 28.6796L12.0991 28.9655H10.6669L10.2956 28.2172C10.1678 27.9613 9.85721 27.8578 9.60137 27.9853C9.34578 28.1131 9.24198 28.4238 9.36978 28.6796L9.51297 28.9655H8.08074L7.70948 28.2172C7.58169 27.9613 7.27105 27.8578 7.01521 27.9853C6.75963 28.1131 6.65583 28.4238 6.78362 28.6796L6.92682 28.9655H6.20931C5.35239 28.9655 4.65761 28.2707 4.65761 27.4138V26.3793H25.3469V27.4138C25.3469 28.2707 24.6524 28.9655 23.7952 28.9655Z" fill="black"/>
</g>
<defs>
<clipPath id="clip0_5_386">
<rect width="30" height="30" fill="white"/>
</clipPath>
</defs>
</svg>
