<svg width="30" height="30" viewBox="0 0 30 30" fill="none" xmlns="http://www.w3.org/2000/svg">
<g clip-path="url(#clip0_5_379)">
<path d="M18.6325 5.61C21.2 4.575 22.5 3.529 22.5 2.5C22.5 1.6255 20.7 0 19 0H6.5C5.67157 0 5 0.671573 5 1.5V2.5C5 3.32843 5.67157 4 6.5 4H8C8.44283 3.99778 8.8849 4.03678 9.3205 4.1165C8.98623 5.49956 8.28331 6.76614 7.2865 7.7815C6.96961 8.10603 6.90938 8.60262 7.1395 8.9935C7.35612 9.38297 7.80706 9.57871 8.2395 9.471C9.94715 9.0167 11.4688 8.03722 12.5895 6.671C12.7388 7.03098 12.8489 7.40597 12.918 7.7895C12.6485 8.13559 12.5015 8.56135 12.5 9V10C12.5011 10.3557 12.6916 10.6838 13 10.861V12C12.987 12.258 12.1 12.9695 11.454 13.4895C9.414 15.127 6 17.8695 6 22.5C6 28.818 10.2 29.9405 10.3785 29.985C10.4182 29.995 10.459 30 10.5 30H20.5C20.541 30 20.5818 29.995 20.6215 29.985C20.8 29.9405 25 28.818 25 22.5C25 17.8695 21.586 15.127 19.546 13.489C18.9 12.969 18.013 12.2575 18 12V10.861C18.3084 10.6838 18.4989 10.3557 18.5 10V9C18.4982 8.51736 18.3204 8.05194 18 7.691V6.541C17.9996 6.13021 18.2505 5.76096 18.6325 5.61ZM6 2.5V1.5C6 1.22386 6.22386 1 6.5 1H7.5V3H6.5C6.22386 3 6 2.77614 6 2.5ZM8.5 1H19C20.0138 1.10683 20.9287 1.65577 21.5 2.5C21.5 2.936 20.5 3.7795 18.2585 4.6825C17.4979 4.9851 16.999 5.72138 17 6.54V7.071C16.8371 7.02597 16.669 7.00211 16.5 7H14.5C14.2572 7.00151 14.0167 7.04761 13.7905 7.136C13.397 5.683 12.1905 3.2185 8.5 3.0135V1ZM13.5 10V9C13.5 8.44771 13.9477 8 14.5 8H16.5C17.0523 8 17.5 8.44771 17.5 9V10H13.5ZM8.003 8.479C9.11473 7.34524 9.90162 5.93376 10.2815 4.392C10.9924 4.6637 11.6115 5.13189 12.0665 5.742C11.0622 7.08943 9.62908 8.05474 8.003 8.479ZM18.92 14.2685C20.943 15.8935 24 18.35 24 22.5C24 27.708 20.89 28.8585 20.4305 29H10.57C10.1 28.8555 7 27.7 7 22.5C7 18.35 10.057 15.8935 12.08 14.2685C13.2365 13.34 14 12.7265 14 12V11H15V18C15 18.338 14.9855 18.6705 14.965 19H9.24C9.05387 19.0001 8.88318 19.1035 8.797 19.2685C8.27174 20.2645 7.99812 21.3739 8 22.5C8 26.506 10.014 27.691 10.631 27.9585C10.6941 27.986 10.7622 28.0002 10.831 28H20.16C20.2288 27.9997 20.2969 27.9854 20.36 27.958C21.1545 27.6095 23 26.38 23 22.5C23.0019 21.3739 22.7283 20.2645 22.203 19.2685C22.1168 19.1035 21.9461 19.0001 21.76 19H15.9675C15.9865 18.671 16 18.3385 16 18V11H17V12C17 12.7265 17.7635 13.34 18.92 14.2685ZM13.803 25.9595C14.0568 26.0683 14.3507 25.9507 14.4595 25.697C15.1863 23.87 15.6654 21.954 15.884 20H21.45C21.8168 20.7821 22.0047 21.6361 22 22.5C22 25.695 20.6065 26.719 20.05 27H10.9405C10.386 26.7235 9 25.709 9 22.5C8.99528 21.6361 9.18317 20.7821 9.55 20H14.877C14.6582 21.8172 14.2091 23.5992 13.5405 25.303C13.4317 25.5568 13.5493 25.8507 13.803 25.9595Z" fill="black"/>
<path d="M10.9999 18C11.1324 18.0001 11.2596 17.9476 11.3534 17.854C12.1031 17.1382 12.9142 16.4897 13.7774 15.916C13.926 15.8169 14.0105 15.646 13.9989 15.4677C13.9874 15.2894 13.8816 15.1308 13.7214 15.0517C13.5613 14.9725 13.371 14.9849 13.2224 15.084C12.3037 15.6929 11.4415 16.3832 10.6464 17.1465C10.5035 17.2895 10.4607 17.5045 10.5381 17.6913C10.6154 17.8781 10.7977 17.9999 10.9999 18Z" fill="black"/>
</g>
<defs>
<clipPath id="clip0_5_379">
<rect width="30" height="30" fill="white"/>
</clipPath>
</defs>
</svg>
