<svg width="30" height="30" viewBox="0 0 30 30" fill="none" xmlns="http://www.w3.org/2000/svg">
<path d="M26.7187 21.2606V19.7138C26.7188 19.5991 26.677 19.4885 26.6011 19.4026C26.5252 19.3167 26.4204 19.2617 26.3067 19.2478C26.1323 19.2275 25.9568 19.2178 25.7812 19.2188C24.8699 19.2209 23.979 19.4878 23.2167 19.9872C22.4545 20.4865 21.8538 21.1967 21.4879 22.0313H12.4528L7.54073 13.8478L8.83448 6.09375H10.7812C11.0298 6.09375 11.2683 5.99498 11.4441 5.81916C11.6199 5.64335 11.7187 5.40489 11.7187 5.15625V4.21875C11.7187 3.97011 11.6199 3.73165 11.4441 3.55584C11.2683 3.38002 11.0298 3.28125 10.7812 3.28125H4.2187C3.97006 3.28125 3.7316 3.38002 3.55579 3.55584C3.37997 3.73165 3.2812 3.97011 3.2812 4.21875V5.15625C3.2812 5.40489 3.37997 5.64335 3.55579 5.81916C3.7316 5.99498 3.97006 6.09375 4.2187 6.09375H6.00933L3.81933 19.252C3.64073 19.2307 3.46106 19.2196 3.2812 19.2188C3.1075 19.2193 2.93396 19.2293 2.76136 19.2488C2.67334 19.2586 2.58992 19.2931 2.52074 19.3484C2.45155 19.4037 2.39945 19.4775 2.37046 19.5612C2.34147 19.6448 2.33678 19.735 2.35693 19.8213C2.37709 19.9075 2.42126 19.9863 2.48433 20.0484C2.82366 20.408 3.12364 20.8027 3.37917 21.2259C2.92142 21.3683 2.50769 21.6254 2.17732 21.9727C1.84696 22.3201 1.61095 22.7462 1.49173 23.2105C1.37251 23.6748 1.37406 24.1619 1.49621 24.6254C1.61837 25.089 1.85707 25.5136 2.18963 25.8588C2.52219 26.2041 2.93754 26.4586 3.39618 26.598C3.85483 26.7374 4.34152 26.7572 4.80997 26.6555C5.27843 26.5538 5.71307 26.3339 6.07257 26.0168C6.43206 25.6997 6.70446 25.2958 6.86386 24.8438H7.47323C7.58878 24.8439 7.7003 24.8013 7.78638 24.7242C7.87247 24.6471 7.92704 24.541 7.93964 24.4261C7.9588 24.2535 7.9685 24.0799 7.9687 23.9063C7.96827 23.2558 7.832 22.6126 7.56861 22.0179C7.30523 21.4231 6.92053 20.89 6.43917 20.4525L6.89573 17.7164L9.8437 22.6298V24.375C9.8437 24.4993 9.89308 24.6186 9.98099 24.7065C10.0689 24.7944 10.1881 24.8438 10.3124 24.8438H23.136C23.2939 25.2914 23.5626 25.6917 23.9172 26.0074C24.2717 26.323 24.7004 26.5437 25.1633 26.6487C25.6262 26.7538 26.1082 26.7398 26.5642 26.6081C27.0203 26.4764 27.4355 26.2312 27.7711 25.8956C28.1067 25.5599 28.3518 25.1446 28.4835 24.6886C28.6151 24.2325 28.629 23.7506 28.5239 23.2877C28.4188 22.8248 28.1981 22.3961 27.8824 22.0416C27.5667 21.6871 27.1664 21.4184 26.7187 21.2606ZM10.7812 5.15625H8.9062V4.21875H10.7812V5.15625ZM7.0312 4.21875H7.9687V5.15625H7.0312V4.21875ZM4.2187 4.21875H6.0937V5.15625H4.2187V4.21875ZM4.2187 25.7813C3.75486 25.7843 3.30641 25.615 2.9603 25.3062C2.61419 24.9973 2.39509 24.571 2.34547 24.1098C2.29584 23.6486 2.41924 23.1854 2.69173 22.81C2.96422 22.4347 3.36639 22.1738 3.82026 22.0781C3.94318 22.3689 4.03982 22.6701 4.10901 22.9781C3.86857 23.0018 3.64664 23.1177 3.48972 23.3014C3.33281 23.4851 3.25309 23.7225 3.26727 23.9637C3.28145 24.2048 3.38843 24.4312 3.56579 24.5953C3.74316 24.7593 3.97714 24.8484 4.2187 24.8438C4.29498 24.843 4.37088 24.8328 4.44464 24.8133C4.49468 24.8324 4.54765 24.8427 4.6012 24.8438H5.83964C5.67506 25.1281 5.43876 25.3644 5.15433 25.5289C4.86989 25.6934 4.54728 25.7804 4.2187 25.7813ZM7.0312 23.9063H5.1562C5.10505 22.5611 4.6387 21.2647 3.8212 20.1952C4.71235 20.326 5.5268 20.7728 6.11604 21.454C6.70528 22.1352 7.03008 23.0055 7.0312 23.9063ZM4.73433 19.4531L6.95948 6.09375H7.88386L5.59214 19.8328C5.31966 19.6778 5.03228 19.5506 4.73433 19.4531ZM10.7123 22.2591L7.13339 16.2905L7.30308 15.2733L11.7857 22.7414C11.8274 22.8107 11.8863 22.8681 11.9567 22.908C12.0271 22.9478 12.1066 22.9687 12.1874 22.9688H21.8062C21.903 22.9687 21.9974 22.9388 22.0764 22.8829C22.1555 22.8271 22.2153 22.7482 22.2478 22.657C22.5073 21.9269 22.986 21.2948 23.6185 20.8472C24.251 20.3996 25.0063 20.1582 25.7812 20.1563V22.0313C25.2839 22.0313 24.807 22.2288 24.4554 22.5804C24.1037 22.9321 23.9062 23.409 23.9062 23.9063H10.7812V22.5C10.7812 22.4149 10.758 22.3315 10.7142 22.2586L10.7123 22.2591ZM25.7812 25.7813C25.4526 25.7804 25.13 25.6934 24.8456 25.5289C24.5611 25.3644 24.3248 25.1281 24.1603 24.8438H24.4593C24.5342 24.8437 24.608 24.8257 24.6744 24.7913C24.7409 24.7569 24.7982 24.7071 24.8415 24.646C24.8848 24.5849 24.9128 24.5143 24.9232 24.4402C24.9336 24.366 24.9261 24.2905 24.9014 24.2198C24.9535 24.3698 25.0428 24.504 25.161 24.61C25.2792 24.716 25.4223 24.7902 25.577 24.8258C25.7318 24.8613 25.893 24.857 26.0455 24.8132C26.1981 24.7694 26.3371 24.6875 26.4494 24.5753C26.5617 24.4632 26.6437 24.3243 26.6877 24.1718C26.7317 24.0192 26.7362 23.858 26.7008 23.7033C26.6655 23.5485 26.5914 23.4053 26.4856 23.287C26.3798 23.1687 26.2456 23.0792 26.0957 23.0269C26.1664 23.0515 26.2419 23.0588 26.3159 23.0483C26.39 23.0378 26.4604 23.0097 26.5214 22.9664C26.5824 22.9231 26.6321 22.8658 26.6664 22.7993C26.7007 22.7329 26.7187 22.6592 26.7187 22.5844V22.2853C27.0747 22.4923 27.3527 22.8108 27.5097 23.1915C27.6667 23.5723 27.694 23.9941 27.5873 24.3919C27.4806 24.7897 27.2459 25.1413 26.9195 25.3924C26.5931 25.6435 26.193 25.7802 25.7812 25.7813Z" fill="black"/>
</svg>
