<svg width="30" height="30" viewBox="0 0 30 30" fill="none" xmlns="http://www.w3.org/2000/svg">
<path d="M15 0C6.72891 0 0 6.72891 0 15C0 23.2711 6.72891 30 15 30C23.2711 30 30 23.2711 30 15C30 6.72891 23.2711 0 15 0ZM15 0.9375C19.4194 0.9375 23.3672 2.98875 25.9472 6.18703C24.9572 5.65922 23.6573 5.18719 22.1564 5.16141C20.1145 3.67453 17.6241 2.8125 15 2.8125C12.3769 2.8125 9.88688 3.67359 7.84547 5.16141C6.34359 5.18672 5.04328 5.65875 4.05281 6.18703C6.63281 2.98875 10.5806 0.9375 15 0.9375ZM17.8125 22.1841C19.538 19.8328 21.7917 17.3438 22.5 17.3438H25.3125C25.5708 17.3438 25.7812 17.5542 25.7812 17.8125C25.7812 18.0698 25.5216 18.8348 25.3528 19.2563C23.8036 22.7517 21.0131 25.2825 17.8125 26.1291V22.1841ZM24.375 16.4062H22.5C21.0427 16.4062 18.1589 20.1328 17.1061 21.5625H12.8939C11.8411 20.1328 8.95734 16.4062 7.5 16.4062H5.625C5.36672 16.4062 5.15625 16.1958 5.15625 15.9375C5.15625 14.6555 5.62453 13.8862 5.84484 13.5938H7.96875C8.87484 13.5938 9.57703 13.0673 10.32 12.51C11.4005 11.6995 12.6248 10.7812 15 10.7812C17.3752 10.7812 18.5995 11.6995 19.68 12.51C20.423 13.0673 21.1252 13.5938 22.0312 13.5938H24.1552C24.3759 13.8867 24.8438 14.6564 24.8438 15.9375C24.8438 16.1958 24.6333 16.4062 24.375 16.4062ZM4.6875 17.3438H7.5C8.20828 17.3438 10.462 19.8328 12.1875 22.1841V26.1291C8.98687 25.2825 6.19641 22.7527 4.65375 19.2712C4.47844 18.8348 4.21875 18.0698 4.21875 17.8125C4.21875 17.5542 4.42922 17.3438 4.6875 17.3438ZM24.2714 12.6562H22.0312C21.4373 12.6562 20.91 12.2606 20.2425 11.76C19.1644 10.9514 17.6873 9.84375 15 9.84375C12.3127 9.84375 10.8356 10.9514 9.7575 11.76C9.09 12.2606 8.56266 12.6562 7.96875 12.6562H5.72859C5.12531 12.6562 4.7175 12.5142 4.51687 12.2344C4.29281 11.9227 4.335 11.452 4.44516 11.1267C6.06938 6.71437 10.3111 3.75 15 3.75C19.6889 3.75 23.9306 6.71437 25.5506 11.1155C25.6645 11.452 25.7067 11.9227 25.4827 12.2344C25.2825 12.5142 24.8747 12.6562 24.2714 12.6562ZM15 29.0625C7.24594 29.0625 0.9375 22.7541 0.9375 15C0.9375 12.5906 1.54734 10.3214 2.61937 8.33719C2.63766 8.32359 2.65828 8.31656 2.67516 8.30016C2.69391 8.28188 4.24875 6.75797 6.53906 6.25594C5.2425 7.50891 4.20937 9.05391 3.56109 10.815C3.46969 11.0855 3.21328 12.0258 3.75516 12.7809C3.99844 13.1203 4.36406 13.3416 4.82203 13.4686C4.53234 13.9903 4.21875 14.8064 4.21875 15.9375C4.21875 16.1227 4.25672 16.2984 4.32188 16.4606C3.72422 16.6223 3.28125 17.1642 3.28125 17.8125C3.28125 18.345 3.69984 19.4123 3.79031 19.6359C5.55234 23.6123 8.83219 26.4319 12.5644 27.1781C12.5948 27.1847 12.6258 27.1875 12.6562 27.1875C12.7636 27.1875 12.8691 27.1505 12.9534 27.0811C13.0622 26.992 13.125 26.8594 13.125 26.7188V22.5H16.875V26.7188C16.875 26.8594 16.9378 26.992 17.0466 27.0811C17.1309 27.1505 17.2364 27.1875 17.3438 27.1875C17.3742 27.1875 17.4052 27.1847 17.4356 27.1781C21.1678 26.4319 24.4477 23.6123 26.2158 19.6209C26.3002 19.4123 26.7188 18.345 26.7188 17.8125C26.7188 17.1642 26.2758 16.6223 25.6781 16.4606C25.7433 16.2984 25.7812 16.1227 25.7812 15.9375C25.7812 14.8064 25.4677 13.9903 25.178 13.4686C25.6359 13.3416 26.0016 13.1198 26.2448 12.7809C26.7867 12.0258 26.5303 11.085 26.4347 10.8033C25.7887 9.04875 24.758 7.50797 23.4642 6.25734C25.7456 6.76172 27.3066 8.28234 27.3253 8.30062C27.3417 8.31703 27.3628 8.32359 27.3806 8.33719C28.4527 10.3214 29.0625 12.5906 29.0625 15C29.0625 22.7541 22.7541 29.0625 15 29.0625Z" fill="black"/>
<path d="M15.4307 13.8778C15.3571 13.7053 15.1874 13.5938 14.9999 13.5938C14.8124 13.5938 14.6428 13.7053 14.5692 13.8778L13.1629 17.1591C13.0607 17.3972 13.1709 17.6728 13.409 17.7745C13.6467 17.8767 13.9223 17.7656 14.0245 17.5285L14.3048 16.875H15.6956L15.9759 17.5285C16.0513 17.7061 16.2243 17.8125 16.4062 17.8125C16.4676 17.8125 16.5304 17.8003 16.5909 17.7741C16.8285 17.6724 16.9392 17.3967 16.837 17.1586L15.4307 13.8778ZM14.7065 15.9375L14.9999 15.2527L15.2934 15.9375H14.7065Z" fill="black"/>
<path d="M15 11.7188C12.6741 11.7188 10.7812 13.6116 10.7812 15.9375C10.7812 18.2634 12.6741 20.1562 15 20.1562C17.3259 20.1562 19.2188 18.2634 19.2188 15.9375C19.2188 13.6116 17.3259 11.7188 15 11.7188ZM15 19.2188C13.1906 19.2188 11.7188 17.7469 11.7188 15.9375C11.7188 14.1281 13.1906 12.6562 15 12.6562C16.8094 12.6562 18.2812 14.1281 18.2812 15.9375C18.2812 17.7469 16.8094 19.2188 15 19.2188Z" fill="black"/>
</svg>
