<svg width="30" height="30" viewBox="0 0 30 30" fill="none" xmlns="http://www.w3.org/2000/svg">
<g clip-path="url(#clip0_5_589)">
<path d="M3.5038 15.2097C3.34812 15.3308 3.22232 15.4405 3.10788 15.5549C2.99345 15.6693 2.88376 15.7952 2.76253 15.951C2.61353 16.1426 2.64798 16.4186 2.83958 16.5677C2.9198 16.6301 3.01478 16.6603 3.10911 16.6603C3.24007 16.6603 3.36968 16.602 3.45628 16.4907C3.55454 16.3643 3.64132 16.2645 3.72933 16.1765C3.81739 16.0884 3.9173 16.0017 4.04345 15.9034C4.23505 15.7544 4.2695 15.4784 4.1205 15.2868C3.9715 15.0951 3.6954 15.0606 3.5038 15.2097Z" fill="black"/>
<path d="M8.37823 21.9283C8.47251 21.9283 8.56749 21.8981 8.6477 21.8358C8.80333 21.7147 8.92919 21.605 9.04374 21.4904C9.15823 21.3759 9.26798 21.2501 9.38909 21.0944C9.53809 20.9029 9.50364 20.6268 9.31204 20.4778C9.1205 20.3288 8.8444 20.3633 8.69534 20.5547C8.59714 20.681 8.51036 20.7808 8.42229 20.8689C8.33417 20.957 8.23433 21.0438 8.10817 21.1419C7.91657 21.2909 7.88206 21.567 8.03106 21.7586C8.11766 21.87 8.24727 21.9283 8.37823 21.9283Z" fill="black"/>
<path d="M23.9242 12.4469C23.5393 12.4469 23.1539 12.4832 22.7789 12.5548C22.5405 12.6003 22.3842 12.8305 22.4296 13.0689C22.4751 13.3072 22.7055 13.4636 22.9437 13.4181C23.2645 13.3569 23.5944 13.3258 23.9242 13.3258C26.7898 13.3258 29.121 15.6571 29.121 18.5227C29.121 21.3882 26.7897 23.7195 23.9242 23.7195C21.0587 23.7195 18.7273 21.3882 18.7273 18.5227C18.7273 16.8434 19.5145 15.3071 20.8536 14.3294L21.3097 15.7736C21.5361 16.4907 21.8892 17.1521 22.3591 17.7394L23.581 19.2669C23.6678 19.3754 23.7955 19.4318 23.9244 19.4318C24.0207 19.4318 24.1177 19.4003 24.1986 19.3355C24.3881 19.1839 24.4189 18.9073 24.2672 18.7178L23.0453 17.1903C22.6434 16.688 22.3414 16.1222 22.1477 15.5088L19.8392 8.19837C19.8377 8.19363 19.8346 8.18378 19.8437 8.17142C19.8527 8.15906 19.8631 8.15906 19.8681 8.15906H22.0454C22.58 8.15906 23.015 8.59406 23.015 9.12867C23.015 9.66327 22.58 10.0983 22.0454 10.0983C21.8027 10.0983 21.6059 10.295 21.6059 10.5377C21.6059 10.7804 21.8027 10.9772 22.0454 10.9772C23.0647 10.9772 23.8939 10.148 23.8939 9.12867C23.8939 8.10937 23.0647 7.28015 22.0454 7.28015H19.8681C19.5752 7.28015 19.3079 7.41562 19.1348 7.65193C18.9616 7.88818 18.913 8.18384 19.0011 8.4631L19.3692 9.62865H10.5333L9.94934 7.6749L11.853 7.29415C12.2982 7.20509 12.6213 6.81099 12.6213 6.35706C12.6213 5.83013 12.1925 5.4014 11.6656 5.4014H8.00103C7.47404 5.4014 7.04537 5.83007 7.04537 6.35706C7.04537 6.82523 7.25303 7.26398 7.61508 7.56075C7.8965 7.79144 8.24361 7.91384 8.59986 7.91384C8.70199 7.91384 8.80494 7.90376 8.90719 7.88331L9.08379 7.84798L9.75727 10.101L6.26209 17.1567C6.20115 17.1484 6.13904 17.1438 6.07588 17.1438C5.31557 17.1438 4.69705 17.7623 4.69705 18.5226C4.69705 19.1293 5.09104 19.6453 5.63643 19.8292V20.8711C5.63643 21.1138 5.83318 21.3105 6.07588 21.3105C6.31857 21.3105 6.51533 21.1138 6.51533 20.8711V19.8292C6.85992 19.713 7.14387 19.4643 7.30635 19.1436L11.1481 19.6553C10.6297 21.978 8.55252 23.7195 6.07588 23.7195C3.21023 23.7196 0.878906 21.3882 0.878906 18.5227C0.878906 15.6571 3.21023 13.3259 6.07576 13.3259C6.27035 13.3259 6.46635 13.3367 6.65824 13.3581C6.89924 13.385 7.1168 13.2112 7.14369 12.97C7.17053 12.7288 6.9968 12.5115 6.75557 12.4846C6.53145 12.4596 6.3027 12.4469 6.0757 12.4469C2.72561 12.4469 0 15.1725 0 18.5227C0 21.8729 2.72561 24.5985 6.07576 24.5985C8.65951 24.5985 10.8714 22.9771 11.7484 20.6985C12.087 21.0741 12.5769 21.3106 13.1212 21.3106C13.1634 21.3106 13.2052 21.3087 13.2467 21.3059L13.5667 22.3117C13.3354 22.3243 13.1514 22.5154 13.1514 22.75C13.1514 22.9927 13.3482 23.1894 13.5909 23.1894H15C15.2427 23.1894 15.4395 22.9927 15.4395 22.75C15.4395 22.5073 15.2427 22.3105 15 22.3105H14.4887L14.0842 21.0393C14.6149 20.7141 14.9698 20.1288 14.9698 19.4621C14.9698 19.0914 14.8597 18.7462 14.6711 18.4565L20.2763 12.501L20.5766 13.4519C18.864 14.5816 17.8484 16.4599 17.8484 18.5227C17.8484 21.8729 20.574 24.5984 23.9242 24.5984C27.2745 24.5984 30 21.8729 30 18.5227C30 15.1725 27.2744 12.4469 23.9242 12.4469ZM8.73481 7.02157C8.53488 7.06154 8.32992 7.01038 8.1723 6.88118C8.01475 6.75198 7.92434 6.56097 7.92434 6.35718C7.92434 6.31487 7.95879 6.28042 8.00109 6.28042H11.6657C11.708 6.28042 11.7424 6.31487 11.7424 6.35718C11.7424 6.39368 11.7165 6.42532 11.6807 6.43247L8.73481 7.02157ZM11.3957 15.5824C10.8783 14.6458 10.1137 13.8494 9.15961 13.2875L10.1263 11.3359L11.3957 15.5824ZM6.07576 19.0226C5.80008 19.0226 5.57584 18.7983 5.57584 18.5227C5.57584 18.247 5.80014 18.0228 6.07576 18.0228C6.35139 18.0228 6.57568 18.247 6.57568 18.5227C6.57574 18.7984 6.35145 19.0226 6.07576 19.0226ZM7.43168 18.2738C7.38023 17.9928 7.24371 17.7412 7.04941 17.5473L8.7685 14.077C10.3213 15.0172 11.2727 16.691 11.2727 18.5227C11.2727 18.6105 11.2705 18.6978 11.2662 18.7845L7.43168 18.2738ZM13.1213 20.4318C12.5866 20.4318 12.1516 19.9968 12.1516 19.4621C12.1516 18.9275 12.5866 18.4925 13.1213 18.4925C13.6559 18.4925 14.0909 18.9275 14.0909 19.4621C14.0909 19.9968 13.6559 20.4318 13.1213 20.4318ZM14.0312 17.854C13.7623 17.7013 13.4519 17.6136 13.1212 17.6136C13.0543 17.6136 12.9884 17.6173 12.9233 17.6244L10.7961 10.5077H19.6468L19.973 11.5409L14.0312 17.854Z" fill="black"/>
<path d="M26.2705 16.1765C26.3585 16.2644 26.4452 16.3643 26.5435 16.4906C26.6302 16.602 26.7597 16.6602 26.8907 16.6602C26.985 16.6602 27.08 16.63 27.1602 16.5676C27.3518 16.4186 27.3863 16.1425 27.2373 15.9509C27.116 15.7951 27.0063 15.6693 26.8919 15.5549C26.7774 15.4404 26.6516 15.3308 26.4959 15.2096C26.3044 15.0606 26.0283 15.0951 25.8792 15.2866C25.7302 15.4782 25.7647 15.7543 25.9563 15.9033C26.0825 16.0016 26.1823 16.0884 26.2705 16.1765Z" fill="black"/>
<path d="M21.578 20.869C21.4899 20.7808 21.4031 20.681 21.3049 20.5548C21.1559 20.3633 20.8798 20.3288 20.6882 20.4778C20.4966 20.6268 20.4622 20.903 20.6112 21.0945C20.7323 21.2501 20.842 21.376 20.9565 21.4905C21.0711 21.605 21.1969 21.7147 21.3525 21.8358C21.4328 21.8982 21.5277 21.9284 21.622 21.9284C21.753 21.9284 21.8826 21.8701 21.9692 21.7587C22.1182 21.5671 22.0837 21.291 21.8921 21.142C21.7659 21.0438 21.6661 20.9571 21.578 20.869Z" fill="black"/>
</g>
<defs>
<clipPath id="clip0_5_589">
<rect width="30" height="30" fill="white"/>
</clipPath>
</defs>
</svg>
